<?xml version="1.0" encoding="utf-8"?>
<!-- Generator: Adobe Illustrator 22.1.0, SVG Export Plug-In . SVG Version: 6.00 Build 0)  -->
<svg version="1.1" id="Layer_1" xmlns="http://www.w3.org/2000/svg" xmlns:xlink="http://www.w3.org/1999/xlink" x="0px" y="0px"
	 viewBox="0 0 288 288" style="enable-background:new 0 0 288 288;" xml:space="preserve">
<style type="text/css">
	.st0{fill:#BB9645;}
	.st1{fill:#0A0B0B;}
	.st2{fill:#FFFFFF;}
	.st3{fill:#231F20;}
	.st4{fill:url(#SVGID_1_);}
	.st5{fill:url(#SVGID_2_);}
	.st6{fill:url(#SVGID_3_);}
	.st7{fill:url(#SVGID_4_);}
	.st8{fill:url(#SVGID_5_);}
	.st9{fill:url(#SVGID_6_);}
	.st10{fill:url(#SVGID_7_);}
	.st11{fill:url(#SVGID_8_);}
	.st12{fill:url(#SVGID_9_);}
	.st13{fill:url(#SVGID_10_);}
	.st14{fill:url(#SVGID_11_);}
	.st15{fill:#1B1B1B;}
	.st16{fill:url(#SVGID_12_);}
	.st17{fill:url(#SVGID_13_);}
	.st18{fill:url(#SVGID_14_);}
	.st19{fill:url(#SVGID_15_);}
	.st20{fill:url(#SVGID_16_);}
	.st21{fill:url(#SVGID_17_);}
	.st22{fill:url(#SVGID_18_);}
	.st23{fill:url(#SVGID_19_);}
	.st24{fill:url(#SVGID_20_);}
	.st25{fill:url(#SVGID_21_);}
	.st26{fill:url(#SVGID_22_);}
</style>
<g>
	<path class="st0" d="M66.1,184.2c4.6-0.9,14.6-2.7,26.3-4.6c1.5-0.2,2.8,1.1,2.4,2.6c-0.7,2.7-1.5,5.4-2.5,8.2
		c-0.3,1,0.5,2,1.6,1.8c52.9-10.2,90.3-28,121.4-52.8c1.6-1.3,2.7-3.2,3-5.3c2.3-15.8-2.3-24.8-7.1-29c-5.1-4.6-9-9.2-36.7-10.9
		c-15.7-0.6-24.3,0.2-27.1,0.5c-0.5,0.1-0.7,0.6-0.5,1c2.8,4.4,15.1,24.9,11.4,43.7l-6.1-21.3c-4-10.9-10.2-21.7-13.1-25.5
		c-0.8-1.1-0.4-2.2,0.9-2.4c3.7-0.6,11.2-0.9,19.6-1.5c9.9-0.4,19.4-0.1,25.7,0.7c-7.1-34.4-22-47-55.6-49.2v-33
		c0-0.8-0.7-1.5-1.5-1.5h-4.9c-0.8,0-1.5,0.7-1.5,1.5v32.7c-27.9-0.8-52.1,1.8-59.8,2.6c-1,0.1-1.5,1.2-1,2.1
		c2.7,4.5,13.4,17.7,17.7,36.3c-10-0.2-20.9,1.1-31.4,5.2c-1.1,0.4-1.4,1.8-0.7,2.7c27.7,34.1,19.6,81.6,17.1,93.4
		C63.7,183.3,64.8,184.5,66.1,184.2z"/>
	<path class="st0" d="M98.9,19.9c0,0-0.7-2.9-0.1-5.5c7.4-1.6,18.2,1.5,18.2,1.5s0-4.9,0-8.9c-5.6-2.6-18-2.2-22-1.3
		s-4.8,2.9-5.6,4.6c-8,0.3-16.5,2.2-16.5,2.2l5.3,3.2l-4.4,4.9C81.1,17.5,98.9,19.9,98.9,19.9z"/>
	<path class="st0" d="M233.6,241.7c-11.3-3.1-9.1-3.1-22.6-5.7c7.6-9.1,31.5-39.2,25.6-48.8c-7-11.3-15.1-18.8-12.5-29.6
		c2.6-10.8,20.7-23.3,24.8-26.8s-3.2-9.9-6.4-7.1s-5.5,4.9-13.3,10.6c-9.6,7-17.4,15.7-16.6,27.9c0.8,10.9,0.9,41.8-13.3,58.3
		c-0.7,0.9-2.1,0-1.6-1.1c3.4-7.7,4.3-18.2,3.6-26.7c-29.4,14.7-55.7,17.6-73.1,17.5c-1,0-1.2-1.5-0.2-1.7
		c28.1-5.7,70.3-20.4,72.6-26.7c2.6-7-1.1-19.7-1.1-19.7s-13.9,6.9-33.9,14.9c-6.6,2.9-13.8,5.6-21.6,8.1c-1.7,0.5-3.4,1.1-5,1.6
		c-22.7,7.5-53.3,14.4-70.2,13.8c-13.7-0.5-22.7-1.8-25.6-2.2c-0.5-0.1-1,0.3-1,0.9c0.3,5.1,2.1,26.7,11.9,36.9
		c-2.2,0.5-6.1,1.5-9.1,3c-2.9,1.5-11.1,9.5-5,8.8c34.3-3.9,78.4-7.5,99.3-6.9c22,0.6,65.3,7.4,103.6,13.4
		C248.9,255.3,239.5,243.3,233.6,241.7z"/>
	<path class="st0" d="M223.1,258.9c-20-4.4-53.4-10.8-82.3-11.1c-36.7-0.4-70.3,4.5-96.9,10.2c-6,1.3-4.5,10.3,1.6,9.6
		c34.3-3.9,74.5-7.7,95.3-7.1c17,0.5,55.4,4.4,80.5,8.1C227.5,269.5,229.3,260.3,223.1,258.9z"/>
	<path class="st0" d="M184.5,276.2c-14.1-3.1-30.2-5.5-46.7-5.7c-20.9-0.3-40,2.5-55.2,5.8c-3.4,0.7-2.6,5.8,0.9,5.4
		c19.5-2.2,42.4-4.4,54.3-4.1c9.7,0.3,27.7,2.6,45.4,5.3C187.6,283.6,188.8,277.1,184.5,276.2z"/>
</g>
</svg>
