<svg id="Layer_1" data-name="Layer 1" xmlns="http://www.w3.org/2000/svg" width="708.85" height="52.21mm" viewBox="0 0 531.64 148"><defs><clipPath id="clip-path" transform="translate(-119.03 -266.33)"><path class="cls-1" d="M119.03 268.57H360.4v143.07H119.03z"/></clipPath><style>.cls-1{fill:none}.cls-2{fill:#83479c}.cls-3{fill:#4d3883}.cls-4{clip-path:url(#clip-path)}.cls-5{fill:#00795d}</style></defs><title>logo</title><path class="cls-2" d="M650.67 375.32l-2.94.93-15.88-8.53-29.56-44.67 8.07-49.53 2.44-7.19h-33.46l-4.94 14.58-9.65-14.58h-4L573 284.91l-14.7 43.31-13.82-7.43 8.38-51.43 7.41-3h-27.6l-1.34 8.25-17 6.95 2.48-15.2h-3.39L510.7 283l-13.28 5.44 6.24-22.12h-10.12l-4.6 16.35-7.8-16.35h-3.7l10.12 21.23-.64 2.28-15.84-8.51-2.37-15h-9.85l1.45 9.22-8.61-4.63-1.6-4.59h-3.54l.78 2.24-4.17-2.24h-69.74l14.74 30.91-6.26 38.47-9.24 3.78v3.61l8.61-3.52-8.61 52.87v20.8l12.24-75.16 19-7.79.71 1.49-23.27 82.54h10.11L411 345.11l33 69.22h22.65l-3-6.28 8.17-29 6.26 8.86 4.18 26.39h10.4l.77-4.67 3.3 4.67h65.79l2.93-8.65 21-6.63-2.45 15.31h3.38l2.68-16.4.8-.26.22 16.66h9.74l-.26-19.71 37.27-11.76 12.8 19.34v-6.06l-7.47-11.28 7.47 4zm-265.13-41.1l5.16-31.69 11.8 24.75zm76.69-46.6l2.26 14.3-1.72.7-6.32-18.1zm-.44 22.38l-1.79-2.62.81-.33zm-9.7-27.78l7.58 21.72-1.68.69-21.91-31zm-39 19.77l-8.85-18.56 10.07 14.25zm6.36 13.32l2.09-7.41 6.38 9-6.44 2.63zm37.9 79.47l-34.45-72.23 7-2.86 34.75 49.17zm6.54-89l1.16-.47 1.09 6.92zm32.4-13.25l13.8-5.65-2.32 14.12-12.07-6.48zm9.84 18.67l-.91 5.58-3.89-8.16zM473 293.41l5.31 2.86-4.56 1.86zm4.64 29.32l-3.36-21.2 7.85-3.21 2.08 1.11zm5.28 17.12l10.08-35.7 3.34 1.8 7.93 16.62-6.27 38.59zm30.7 43.44l-12.89-18.24 6.06-37.18 11.82 24.79zm5.93-36.42l-11.82-24.79 1.5-9.2 14.58 7.83zm-8.67-44.15l2.82-17.32 17-6.95-5.23 32.11zm20.32 105.44l-.74-1 3.6-22.08 2.91 6.11zm7.31-21.54l-3.51-7.36 7.87-48.26 12.3 6.61zm51.55-53.32l.16 12.05-3.59-1.93zm-2.93 62.06l-20.31 6.4 16.64-49 6.91 3.71.23 17.59zm3.57-1.13l.15-.92v.87zm8.73-88.53l4.42-13-4.25 26.05zm.43 32.29l1.64-10.07 24.13 36.45L600 350.61zm.69 53.14l-.38-29.39 34.6 18.59z" transform="translate(-119.03 -266.33)"/><path class="cls-3" d="M410.38 148l1.18-7.21-16.85-23.83-5.05 31.04h20.72z"/><path class="cls-3" d="M471.45 345.1l-6.7 23.76 7.25 10.22 3.11-11 3.15 19.88 15.35 21.72 1-6.14 3.78 10.81h3.54l-6.19-17.72 5.14-31.56-2.75-3.89L493.4 390l-9.13-26.13-2.87-18.17 1.64-5.84L461.91 310l7.27 20.83zm20.82 51.81l-1.4 8.61-3.66-23.11z" transform="translate(-119.03 -266.33)"/><path class="cls-3" d="M436.24 71.23l28.29 15.2 3.17-9.35-28.29-15.2-3.17 9.35zM470.26 0l.49 37.67-15.28-23.09-1.36 4 16.72 25.27.31 23.12 9.37-27.61L479.99 0h-9.73zM419.14 148l27.43-8.65 1.33-3.92-37.46 11.81-.26.76h8.96zM404.79 54.38l19.05 10.24 1.66-10.16-19.06-10.24-1.65 10.16zM304.09 0l-8.83 31.29 7.23 10.23 11.06-39.23L311.94 0h-7.85zM415.94 112.92l-15.45-32.38-.94 5.79 15.44 32.38.95-5.79z"/><path class="cls-3" d="M432.67 148l-13.22-27.72-1.54 4.54L428.96 148h3.71z"/><g class="cls-4"><path class="cls-5" d="M343.39 278.07a4.84 4.84 0 014 1.61q1.27 1.62 1.28 5.23v6.55q0 4-1.66 5.51a6.61 6.61 0 01-4.61 1.52h-4.08v-20.42zm17 57a13.58 13.58 0 01-.95-3.76 41.83 41.83 0 01-.19-4.32v-10.26a23.84 23.84 0 00-1.48-8.88 9.32 9.32 0 00-5.46-5.27q6.84-3.24 6.84-13.49v-5.23q0-7.69-3.66-11.49t-11.82-3.8h-15.76v66.5h10.45V308H342q3.6 0 5.22 1.9c1.08 1.27 1.62 3.45 1.62 6.56v13.76a18.23 18.23 0 00.19 2.19 9.61 9.61 0 00.34 1.42c.12.38.25.79.38 1.24zm-56-57h18v-9.5H293.9v66.5h28.5v-9.5h-18v-19.48h14.34v-9.5h-14.39zm-27.55 57h10.45v-66.5H276.8zm-36-66.5h-14.58v66.5h9.12V288l7.79 47h9.88l7.22-47.69V335h9.88v-66.5h-14.54l-7.12 47.21zm-38 9.5h18.05v-9.5h-28.5v66.5h28.5v-9.5h-18.1v-19.48h14.35v-9.5h-14.35zm-32.2 0a4.84 4.84 0 014 1.61q1.27 1.62 1.28 5.23v6.55c0 2.66-.56 4.5-1.66 5.51a6.61 6.61 0 01-4.61 1.52h-4.09v-20.42zm17 57a14.33 14.33 0 01-1-3.76c-.12-1.23-.19-2.67-.19-4.32v-10.26a23.85 23.85 0 00-1.47-8.88 9.32 9.32 0 00-5.46-5.27q6.84-3.24 6.84-13.49v-5.23q0-7.69-3.66-11.49t-11.83-3.8H155.1v66.5h10.45V308h3.61q3.61 0 5.23 1.9c1.08 1.27 1.61 3.45 1.61 6.56v10.44c0 1.33 0 2.43.05 3.32a18.23 18.23 0 00.19 2.19 11.25 11.25 0 00.33 1.42c.13.38.26.79.38 1.24zm-52.43-57a5.14 5.14 0 013.8 1.33c.88.88 1.33 2.53 1.33 4.94v10c0 2.41-.45 4.05-1.33 4.94a5.14 5.14 0 01-3.8 1.33h-4.94v-22.54zm-15.39-9.5v66.5h10.45v-25h4.94q7.88 0 11.73-4.18t3.85-12.25V285q0-8.07-3.85-12.25t-11.73-4.18zM220.93 393.22a11.22 11.22 0 001.63 2.68 20.57 20.57 0 002.09 2.18c.75.66 1.45 1.32 2.1 2a10.61 10.61 0 011.62 2.11 5 5 0 01.65 2.58 3 3 0 01-.63 2.16 2.63 2.63 0 01-3.37 0 3 3 0 01-.63-2.16v-2h-4.23v1.75a7.57 7.57 0 001.69 5.3 7.63 7.63 0 0010 0 7.61 7.61 0 001.68-5.3 8.74 8.74 0 00-.65-3.54 11.06 11.06 0 00-1.62-2.68 19.7 19.7 0 00-2.1-2.18c-.74-.66-1.44-1.32-2.09-2a11.05 11.05 0 01-1.67-2.12 5.1 5.1 0 01-.65-2.58 3.2 3.2 0 01.59-2.18 2.48 2.48 0 013.3 0 3.2 3.2 0 01.59 2.18v1.18h4.22v-.9a7.75 7.75 0 00-1.64-5.3 7.52 7.52 0 00-9.88 0 7.7 7.7 0 00-1.65 5.3 8.91 8.91 0 00.65 3.54m-10.57-6.3h7.73v-4.07h-12.2v28.46h12.2v-4.07h-7.73v-8.33h6.14v-4.07h-6.14zm-11.42 13.76v4.06a3 3 0 01-.63 2.16 2.63 2.63 0 01-3.37 0 3 3 0 01-.63-2.16V389.4a3 3 0 01.63-2.18 2.57 2.57 0 013.37 0 3 3 0 01.63 2.18v3.05h4.23v-2.77a7.57 7.57 0 00-1.69-5.3 7.63 7.63 0 00-10 0 7.61 7.61 0 00-1.68 5.3v14.8a7.61 7.61 0 001.68 5.3 7.63 7.63 0 0010 0 7.57 7.57 0 001.69-5.3v-3.78zm-16.46 10.61H187v-28.46h-4.47zm-13-28.46H165l4.39 28.46H176l4.39-28.46h-4.09l-3.41 23.21zm-13 4.07a2.07 2.07 0 011.73.69 3.56 3.56 0 01.55 2.23v2.81a3.15 3.15 0 01-.71 2.36 2.82 2.82 0 01-2 .65h-1.75v-8.74zm7.28 24.39a6.06 6.06 0 01-.41-1.61c-.05-.53-.08-1.14-.08-1.85v-4.39a10.21 10.21 0 00-.63-3.8 4 4 0 00-2.33-2.25c1.95-.93 2.92-2.85 2.92-5.78v-2.23a6.85 6.85 0 00-1.56-4.92c-1.05-1.08-2.73-1.63-5.06-1.63h-6.75v28.46h4.47v-11.59h1.55a2.76 2.76 0 012.23.82 4.36 4.36 0 01.69 2.8v5.89a9.22 9.22 0 00.08.94 3.4 3.4 0 00.15.61l.16.53zm-24.39-24.39h7.72v-4.07h-12.17v28.46h12.19v-4.07h-7.72v-8.33h6.14v-4.07h-6.14zm-19.59 6.3a10.87 10.87 0 001.62 2.68 19.7 19.7 0 002.1 2.18c.74.66 1.44 1.32 2.09 2a11.05 11.05 0 011.63 2.11 5.1 5.1 0 01.65 2.58 3 3 0 01-.63 2.16 2.65 2.65 0 01-3.38 0 3 3 0 01-.63-2.16v-2H119v1.75a7.61 7.61 0 001.68 5.3 7.63 7.63 0 0010 0 7.57 7.57 0 001.69-5.3 8.91 8.91 0 00-.65-3.54 11.09 11.09 0 00-1.63-2.68 20.57 20.57 0 00-2.09-2.18c-.75-.66-1.44-1.32-2.09-2a10.66 10.66 0 01-1.63-2.11 5.1 5.1 0 01-.65-2.58 3.2 3.2 0 01.59-2.18 2.46 2.46 0 013.29 0 3.2 3.2 0 01.59 2.18v1.18h4.23v-.9a7.7 7.7 0 00-1.65-5.3 7.52 7.52 0 00-9.88 0 7.75 7.75 0 00-1.64 5.3 8.74 8.74 0 00.65 3.54M309.67 376.66h11.83v-4.07h-7.36V348.2h-4.47zm-10.12-23.42l2.15 14.39h-4.31zm3.5-5h-6.55l-4.5 28.42h4.1l.78-5.17h5.48l.78 5.17h4.51zm-24.15 4.07h4.67v24.39h4.48v-24.43h4.67v-4.07H278.9zm-6.5 24.39h4.6v-28.5h-4v17l-4.59-17h-5.61v28.46h4v-20.61zm-20-24.39h7.72v-4.11h-12.2v28.46h12.2v-4.07h-7.72v-8.33h6.13v-4.07h-6.13zm-20.29-4.07h-6.22v28.46h3.91v-20.16l3.33 20.12h4.23l3.09-20.41v20.41h4.22V348.2h-6.22l-3 20.21zm-14 28.46h4.59v-28.5h-4v17l-4.59-17h-5.61v28.46h4v-20.61zm-26-6.83a7.44 7.44 0 001.75 5.3 7.79 7.79 0 0010.08 0 7.4 7.4 0 001.75-5.3V355a7.4 7.4 0 00-1.75-5.3 7.79 7.79 0 00-10.08 0 7.44 7.44 0 00-1.75 5.3zm4.47-15.08a3 3 0 01.63-2.18 2.58 2.58 0 013.38 0 3 3 0 01.63 2.18v15.36a3 3 0 01-.63 2.18 2.58 2.58 0 01-3.38 0 3 3 0 01-.63-2.18zm-13.82-2.48a2.08 2.08 0 011.73.69 3.58 3.58 0 01.55 2.23V358a3.15 3.15 0 01-.71 2.36 2.84 2.84 0 01-2 .65h-1.75v-8.74zm7.24 24.35a6.06 6.06 0 01-.41-1.61c-.05-.53-.08-1.14-.08-1.85v-4.39a10.21 10.21 0 00-.63-3.8 4 4 0 00-2.34-2.25c2-.93 2.93-2.85 2.93-5.78v-2.23a6.85 6.85 0 00-1.56-4.92c-1-1.09-2.73-1.63-5.06-1.63h-6.75v28.46h4.47v-11.59h1.54a2.77 2.77 0 012.24.82 4.36 4.36 0 01.69 2.8v5.89a6.88 6.88 0 00.08.94 4.69 4.69 0 00.14.61c.06.16.11.34.17.53zm-21.62 0h4.47V348.2h-4.47zm-13-28.46h-4.51l4.39 28.46h6.66l4.39-28.46h-4.1l-3.42 23.21zm-11.14 28.46h4.59V348.2h-4v17l-4.59-17h-5.61v28.46h4v-20.61zm-20-24.39h7.72v-4.07h-12.24v28.46h12.19v-4.07h-7.72v-8.33h6.14v-4.07h-6.14z" transform="translate(-119.03 -266.33)"/></g></svg>