<?xml version="1.0" encoding="UTF-8" standalone="no"?>
<!-- Created with Inkscape (http://www.inkscape.org/) -->

<svg
   width="39.344475mm"
   height="39.131725mm"
   viewBox="0 0 39.344475 39.131725"
   version="1.1"
   id="svg5"
   xml:space="preserve"
   inkscape:version="1.2.2 (b0a8486541, 2022-12-01)"
   sodipodi:docname="anchor.svg"
   xmlns:inkscape="http://www.inkscape.org/namespaces/inkscape"
   xmlns:sodipodi="http://sodipodi.sourceforge.net/DTD/sodipodi-0.dtd"
   xmlns="http://www.w3.org/2000/svg"
   xmlns:svg="http://www.w3.org/2000/svg"><sodipodi:namedview
     id="namedview7"
     pagecolor="#ffffff"
     bordercolor="#000000"
     borderopacity="0.25"
     inkscape:showpageshadow="2"
     inkscape:pageopacity="0.0"
     inkscape:pagecheckerboard="0"
     inkscape:deskcolor="#d1d1d1"
     inkscape:document-units="mm"
     showgrid="false"
     inkscape:zoom="0.914906"
     inkscape:cx="-11.476589"
     inkscape:cy="73.778071"
     inkscape:window-width="1452"
     inkscape:window-height="1080"
     inkscape:window-x="26"
     inkscape:window-y="23"
     inkscape:window-maximized="0"
     inkscape:current-layer="layer1" /><defs
     id="defs2" /><g
     inkscape:label="Layer 1"
     inkscape:groupmode="layer"
     id="layer1"
     transform="translate(-105.57763,-129.11077)"><path
       style="fill:#ffffff;stroke-width:0.264583;fill-opacity:1"
       d="m 121.27229,167.8863 c -4.64067,-0.72138 -9.45543,-3.07335 -11.83074,-5.77922 l -0.72711,-0.82831 -1.13499,1.1139 c -1.98056,1.94377 -2.06505,1.80227 -1.98124,-3.31787 l 0.0725,-4.43177 4.30526,-0.0727 c 5.16445,-0.0872 5.36017,0.0342 3.34814,2.07692 l -1.2824,1.30197 1.16132,1.18329 c 1.46595,1.49369 4.15333,2.9149 6.78415,3.58775 1.12203,0.28696 2.14007,0.52176 2.26231,0.52176 0.12224,0 0.22226,-3.27422 0.22226,-7.27605 v -7.27604 h -2.26635 c -3.18834,0 -3.2899,-0.0815 -3.2899,-2.64014 0,-2.6938 0.25662,-2.91611 3.36616,-2.91611 h 2.19009 v -1.79386 c 0,-1.72053 -0.0394,-1.831 -0.96315,-2.70233 -1.21917,-1.14995 -1.72048,-2.3484 -1.72048,-4.113 0,-3.12966 2.30433,-5.41372 5.46176,-5.41372 3.15742,0 5.46175,2.28406 5.46175,5.41372 0,1.7646 -0.50131,2.96305 -1.72048,4.113 -0.92378,0.87133 -0.96315,0.9818 -0.96315,2.70233 v 1.79386 h 2.19009 c 3.10954,0 3.36616,0.22231 3.36616,2.91611 0,2.55864 -0.10156,2.64014 -3.2899,2.64014 H 128.028 v 7.27604 c 0,4.00183 0.10002,7.27605 0.22226,7.27605 0.12224,0 1.14028,-0.2348 2.26232,-0.52176 2.63081,-0.67285 5.31819,-2.09406 6.78415,-3.58775 l 1.16131,-1.18329 -1.2824,-1.30197 c -2.01203,-2.04275 -1.81631,-2.16416 3.34814,-2.07692 l 4.30526,0.0727 0.0725,4.43177 c 0.0838,5.12014 -7.9e-4,5.26164 -1.98124,3.31787 l -1.13499,-1.1139 -0.72711,0.82831 c -1.56169,1.77901 -4.87704,3.80433 -8.00197,4.8883 -1.83494,0.63651 -5.99166,1.2782 -8.07098,1.24595 -0.87313,-0.0136 -2.544,-0.1733 -3.71305,-0.35503 z m 5.10211,-32.23445 c 0.46902,-0.36291 0.40979,-1.51729 -0.10716,-2.08851 -0.94791,-1.04743 -2.59433,-0.18388 -2.42622,1.27255 0.13835,1.19856 1.48032,1.63079 2.53338,0.81596 z"
       id="path1233" /></g></svg>
