<?xml version="1.0" encoding="UTF-8" standalone="no"?>
<svg
   height="150.00002"
   width="400"
   clip-rule="evenodd"
   fill-rule="evenodd"
   stroke-linejoin="round"
   stroke-miterlimit="1.4142"
   viewBox="-59.96544 -19.409525 173.23349 21.835718"
   version="1.1"
   id="svg7721"
   sodipodi:docname="opencart.svg"
   inkscape:version="1.2.2 (b0a8486541, 2022-12-01)"
   xmlns:inkscape="http://www.inkscape.org/namespaces/inkscape"
   xmlns:sodipodi="http://sodipodi.sourceforge.net/DTD/sodipodi-0.dtd"
   xmlns="http://www.w3.org/2000/svg"
   xmlns:svg="http://www.w3.org/2000/svg">
  <sodipodi:namedview
     id="namedview7723"
     pagecolor="#ffffff"
     bordercolor="#000000"
     borderopacity="0.25"
     inkscape:showpageshadow="2"
     inkscape:pageopacity="0.0"
     inkscape:pagecheckerboard="0"
     inkscape:deskcolor="#d1d1d1"
     showgrid="false"
     inkscape:zoom="1.0916667"
     inkscape:cx="1242.5954"
     inkscape:cy="621.52672"
     inkscape:window-width="3782"
     inkscape:window-height="1536"
     inkscape:window-x="0"
     inkscape:window-y="0"
     inkscape:window-maximized="1"
     inkscape:current-layer="svg7721" />
  <path
     d="m -35.056249,-8.1921824 c 0,2.277542 -0.67786,4.195943 -2.0384,5.748935 -1.41979,1.62713799 -3.26468,2.44400199473 -5.52304,2.44400199473 -2.26437,0 -4.10327,-0.81686400473 -5.52312,-2.44400199473 -1.36109,-1.552992 -2.04402,-3.471393 -2.04402,-5.748935 0,-2.2838196 0.68293,-4.2016096 2.04402,-5.7489896 1.43562,-1.61194 3.28057,-2.41751 5.52312,-2.41751 2.25836,0 4.10325,0.80557 5.52304,2.41751 1.36054,1.54738 2.0384,3.46517 2.0384,5.7489896 z m -4.49646,0 c 0,-1.0316 -0.24714,-1.9023596 -0.74193,-2.6063196 -0.55361,-0.80021 -1.32836,-1.19772 -2.32305,-1.19772 -0.99508,0 -1.76951,0.39751 -2.32368,1.19772 -0.49991,0.70396 -0.7473,1.5747196 -0.7473,2.6063196 0,1.02587 0.24739,1.907052 0.7473,2.632202 0.55417,0.80021 1.3286,1.19833 2.32368,1.19833 0.99469,0 1.76944,-0.39812 2.32305,-1.19833 0.49479,-0.72515 0.74193,-1.606332 0.74193,-2.632202 z m 20.7542,0 c 0,2.127412 -0.61317,3.986263 -1.84488,5.576543 -1.31761,1.74057999 -3.01705,2.61639399473 -5.08221,2.61639399473 -1.45766,0 -2.69421,-0.42436000473 -3.70534,-1.26233799473 0,0.192957 0.0215,0.66052099 0.0647,1.40800199 0.0429,0.751324 0.0642,1.36388201 0.0642,1.84749501 0,2.670949 -0.79593,4.002977 -2.38744,4.002977 -0.65104,0 -1.18315,-0.231098 -1.60824,-0.687921 -0.41941,-0.461584 -0.6293,-1.016046 -0.6293,-1.670649 V -13.731492 c 0,-0.63404 0.21526,-1.18227 0.64542,-1.64386 0.4301,-0.45683 0.96282,-0.68731 1.59743,-0.68731 0.9569,0 1.65626,0.47708 2.09741,1.42881 0.94108,-1.14974 2.22649,-1.72483 3.85586,-1.72483 2.07054,0 3.7646,0.85915 5.08758,2.58429 1.22633,1.59589 1.84488,3.45474 1.84488,5.5822096 z m -4.49646,0 c 0,-1.0316 -0.25215,-1.9023596 -0.747,-2.6063196 -0.55447,-0.80021 -1.3286,-1.19772 -2.32368,-1.19772 -0.9947,0 -1.76913,0.39751 -2.32329,1.19772 -0.49485,0.70396 -0.742,1.5747196 -0.742,2.6063196 0,1.02587 0.24715,1.907052 0.742,2.632202 0.55416,0.80021 1.32859,1.19833 2.32329,1.19833 0.99508,0 1.76921,-0.39812 2.32368,-1.19833 0.49485,-0.72515 0.747,-1.606332 0.747,-2.632202 z m 20.8561495,-0.48306 c 0,0.75139 -0.17764,1.26716 -0.53266,1.55781 -0.35472,0.28437 -0.90857,0.42943 -1.65619,0.42943 h -8.1156095 c 0,0.859702 0.40358,1.520222 1.21021,1.981812 0.65073,0.360644 1.44666,0.543783 2.3877395,0.543783 0.73186,0 1.60824,-0.24269 2.63545,-0.720083 1.02726,-0.48392 1.68845,-0.72069 1.97402,-0.72069 0.52136,0 0.96221,0.18825 1.32798,0.57509 0.3601,0.38177 0.54341,0.843651 0.54341,1.375782 0,1.229625 -0.91958,2.187028 -2.75945,2.87433799 -1.40342,0.515469 -2.82859,0.77872500473 -4.28571,0.77872500473 -2.3447995,0 -4.2380095,-0.77872500473 -5.6846195,-2.33110799473 -1.44697,-1.553059 -2.17254,-3.503317 -2.17254,-5.861829 0,-2.2462896 0.75268,-4.1640696 2.25837,-5.7644896 1.5003,-1.60181 3.367,-2.40201 5.5931695,-2.40201 2.07053,0 3.80217,0.75761 5.19007,2.27252 1.38706,1.51546 2.08636,3.32043 2.08636,5.4109196 z m -4.49585,-1.12894 c -0.0218,-0.6879196 -0.33889,-1.3109096 -0.95206,-1.8755096 -0.61324,-0.56374 -1.26367,-0.84274 -1.95227,-0.84274 -0.7097595,0 -1.3714795,0.279 -1.9844195,0.84274 -0.61285,0.5646 -0.91986,1.18759 -0.91986,1.8755096 z m 19.6025005,7.150402 c 0,0.656067 -0.20952,1.209065 -0.62856,1.67119699 -0.42515,0.457129 -0.95781,0.688227 -1.60843,0.688227 -1.5703605,0 -2.3558605,-1.24659299 -2.3558605,-3.73404799 0,-0.478238 0.0325,-1.230176 0.0969,-2.267156 0.0701,-1.031852 0.10252,-1.789162 0.10252,-2.267402 0,-2.6384796 -0.85525,-3.9594696 -2.56007,-3.9594696 -1.70506,0 -2.55462,1.32099 -2.55462,3.9594696 0,0.47824 0.0268,1.23555 0.0751,2.267402 0.054,1.03698 0.0807,1.788918 0.0807,2.267156 0,2.487455 -0.77445,3.73404799 -2.32306999,3.73404799 -0.65104,0 -1.18315,-0.231098 -1.60287,-0.688227 C -1.0351995,-1.4447154 -1.2450295,-1.9977134 -1.2450295,-2.6537804 V -13.736252 c 0,-0.65131 0.20983,-1.20369 0.63460001,-1.64984 0.41972,-0.45145 0.95751,-0.67657 1.60824,-0.67657 1.07552999,0 1.82283999,0.47708 2.24224999,1.42881 0.72618,-1.14974 2.01129,-1.72483 3.85079,-1.72483 1.70481,0 3.0602305,0.4509 4.0552505,1.34813 1.01644,0.96247 1.52161,2.28351 1.52161,3.96544 z m 14.10633,-0.477389 c 0,1.015192 -0.66032,1.820766 -1.98403,2.41245299 a 7.990829,7.9828383 0 0 1 -3.33952,0.71947100473 c -2.26502,0 -4.10368,-0.81686400473 -5.52329,-2.44400199473 -1.36097,-1.552992 -2.0439,-3.471393 -2.0439,-5.748935 0,-2.2838196 0.69393,-4.2120396 2.08666,-5.7918296 1.39274,-1.5846 3.21551,-2.37467 5.48053,-2.37467 1.30661,0 2.43058,0.19332 3.367,0.57509 1.306,0.51576 1.95655,1.32128 1.95655,2.41751 0,0.55299 -0.17165,1.04198 -0.51617,1.46665 -0.34391,0.41898 -0.78555,0.63397 -1.32248,0.63397 -0.36651,0 -0.89367,-0.12357 -1.58149,-0.36479 -0.68843,-0.24776 -1.23636,-0.36597 -1.63952,-0.36597 -1.07082,0 -1.90463,0.38146 -2.50142,1.14407 -0.55404,0.68793 -0.83381,1.5691096 -0.83381,2.6599696 0,1.02587 0.24739,1.896622 0.74829,2.600352 0.55282,0.82217 1.33348,1.23018 2.32794,1.23018 0.44164,0 1.04333,-0.128942 1.81239,-0.39281 0.76967,-0.25697 1.32371,-0.39129 1.66762,-0.39129 0.50028,0 0.92971,0.21444 1.29622,0.633733 0.3604,0.424365 0.54243,0.880571 0.54243,1.380848 z m 16.34386,0.477389 c 0,0.656067 -0.20951,1.209065 -0.62916,1.67119699 -0.42454,0.457129 -0.96209,0.688227 -1.61387,0.688227 -0.97858,0 -1.67739,-0.478548 -2.09704,-1.42942099 -0.94071,1.15011499 -2.22654,1.72453199473 -3.85568,1.72453199473 -2.08605,0 -3.79642,-0.87581400473 -5.12013,-2.61639399473 -1.2046,-1.59028 -1.81117,-3.449131 -1.81117,-5.576543 0,-2.1274696 0.60657,-3.9863196 1.81117,-5.5822096 1.34509,-1.72514 3.04936,-2.58429 5.12013,-2.58429 1.62914,0 2.91497,0.57509 3.85568,1.72483 0.41965,-0.95173 1.11846,-1.42881 2.09704,-1.42881 0.63528,0 1.16794,0.23048 1.5986,0.68731 0.42942,0.46159 0.64443,1.00445 0.64443,1.6391 z m -4.49584,-5.538402 c 0,-1.0316 -0.24678,-1.9023596 -0.74218,-2.6063196 -0.57542,-0.80021 -1.34997,-1.19772 -2.32305,-1.19772 -0.99508,0 -1.76902,0.39751 -2.32368,1.19772 -0.49967,0.70396 -0.74646,1.5747196 -0.74646,2.6063196 0,1.02587 0.24068,1.907052 0.71898,2.632202 0.57114,0.80021 1.35608,1.19833 2.35116,1.19833 0.99446,0 1.76901,-0.39812 2.32305,-1.19833 0.4954,-0.72515 0.74218,-1.606332 0.74218,-2.632202 z m 15.96758,-5.8403996 c 0,0.96161 -0.46791,1.62238 -1.40373,1.98211 -0.86557,0.29066 -1.72686,0.58669 -2.58694,0.89193 -0.94193,0.5378 -1.40922,1.5369396 -1.40922,2.9877796 v 5.516982 c 0,0.656067 -0.21563,1.209065 -0.63407,1.67119699 -0.42575,0.457129 -0.9633,0.688227 -1.61386,0.688227 -0.65544,0 -1.19421,-0.231098 -1.61264,-0.688227 -0.42576,-0.46213199 -0.63529,-1.01512999 -0.63529,-1.67119699 V -13.736252 c 0,-0.65131 0.20953,-1.20369 0.62918,-1.64984 0.42454,-0.45145 0.96331,-0.67657 1.61387,-0.67657 1.07509,0 1.82215,0.47708 2.24242,1.42881 0.9627,-1.14974 1.99564,-1.72483 3.10861,-1.72483 0.63406,0 1.17772,0.23054 1.62913,0.68731 0.44593,0.46218 0.67254,1.01012 0.67254,1.63879 z m 11.72952,0.2043 c 0,0.99909 -0.39278,1.62776 -1.17161,1.89693 -0.383,0.13401 -1.18504,0.2037 -2.40552,0.2037 v 9.0738716 c 0,0.656067 -0.21502,1.209065 -0.63344,1.67119699 -0.42577,0.457129 -0.96332,0.688227 -1.61387,0.688227 -0.63407,0 -1.17283,-0.231098 -1.60348,-0.688227 -0.42943,-0.46213199 -0.64444,-1.01512999 -0.64444,-1.67119699 v -9.0738716 c -0.92544,0 -1.59737,-0.11821 -2.02191,-0.34869 -0.5803,-0.32251 -0.8674,-0.90828 -0.8674,-1.75194 0,-0.8431 0.29625,-1.41812 0.89305,-1.72483 0.40378,-0.22573 1.07082,-0.34339 1.99626,-0.34339 v -1.92346 c 0,-2.26173 0.74645,-3.38981 2.24792,-3.38981 1.49474,0 2.24731,1.12808 2.24731,3.38981 v 1.92346 c 1.22048,0 2.02252,0.0697 2.40552,0.2037 0.77883,0.26864 1.17161,0.89248 1.17161,1.86452 z m 36.120089,-2.72812 c -0.0122,-1.37907 -2.563119,-2.00506 -9.166389,-2.00506 -15.49357,0 -19.42438,-0.66114 -23.63068,-5.0831 1.76963,2.65514 2.73782,7.63524 19.11406,7.38742 17.086049,-0.26295 6.66253,4.40116 3.62966,9.6706796 5.46954,-4.8767096 10.036859,-8.0911496 10.053349,-9.9499896 z M 80.667511,-2.3952834 c -6.2e-4,1.281866 -1.05616,2.33647899 -2.33955,2.33678399 -1.29622,0 -2.34444,-1.04704699 -2.34444,-2.33678399 v -0.0018 c 0,-1.283999 1.05737,-2.340637 2.34322,-2.340637 h 0.001 c 1.29194,0 2.33955,1.047361 2.33955,2.342467 z m 10.66969,0 c -7.7e-4,1.281866 -1.05616,2.33647899 -2.33956,2.33678399 -1.29499,0 -2.34382,-1.04704699 -2.34382,-2.33678399 v -0.0018 c 0,-1.283999 1.05739,-2.340637 2.34261,-2.340637 h 0.001 c 1.29196,0 2.33955,1.047361 2.33955,2.342467 z"
     fill="url(#_Linear1)"
     fill-rule="nonzero"
     id="path7715"
     style="fill:url(#_Linear1);stroke-width:0.0610544" />
  <defs
     id="defs3925">
    <linearGradient
       gradientTransform="matrix(0,-23.447534,23.471005,0,26.127271,-0.19696341)"
       gradientUnits="userSpaceOnUse"
       y2="0"
       x2="1"
       y1="0"
       x1="0"
       id="_Linear1">
      <stop
         id="stop3920"
         offset="0"
         stop-color="#04b6f0"
         stop-opacity="1" />
      <stop
         id="stop3922"
         offset="1"
         stop-color="#3ecaf0"
         stop-opacity="1" />
    </linearGradient>
  </defs>
</svg>
