<?xml version="1.0" encoding="UTF-8" standalone="no"?>
<!-- Created with Inkscape (http://www.inkscape.org/) -->

<svg
   version="1.1"
   id="svg2"
   width="400"
   height="150"
   viewBox="0 0 400 150"
   sodipodi:docname="piratepay.svg"
   inkscape:version="1.2.2 (b0a8486541, 2022-12-01)"
   xmlns:inkscape="http://www.inkscape.org/namespaces/inkscape"
   xmlns:sodipodi="http://sodipodi.sourceforge.net/DTD/sodipodi-0.dtd"
   xmlns:xlink="http://www.w3.org/1999/xlink"
   xmlns="http://www.w3.org/2000/svg"
   xmlns:svg="http://www.w3.org/2000/svg">
  <defs
     id="defs6">
    <linearGradient
       inkscape:collect="always"
       id="linearGradient2906">
      <stop
         style="stop-color:#bd9746;stop-opacity:1;"
         offset="0"
         id="stop2902" />
      <stop
         style="stop-color:#ffcb5e;stop-opacity:1;"
         offset="0.166067"
         id="stop3040" />
      <stop
         style="stop-color:#d5ac4d;stop-opacity:1;"
         offset="0.40337831"
         id="stop3034" />
      <stop
         style="stop-color:#ffcd59;stop-opacity:1;"
         offset="0.8019793"
         id="stop3038" />
      <stop
         style="stop-color:#ffc546;stop-opacity:1;"
         offset="0.88959211"
         id="stop3036" />
      <stop
         style="stop-color:#fdcd59;stop-opacity:1;"
         offset="1"
         id="stop2904" />
    </linearGradient>
    <linearGradient
       inkscape:collect="always"
       xlink:href="#linearGradient2906"
       id="linearGradient2908"
       x1="-133.4649"
       y1="-119.14301"
       x2="192.18756"
       y2="322.37299"
       gradientUnits="userSpaceOnUse"
       gradientTransform="matrix(0.29836235,0,0,0.29836235,1252.6043,169.01876)" />
  </defs>
  <sodipodi:namedview
     id="namedview4"
     pagecolor="#ffffff"
     bordercolor="#000000"
     borderopacity="0.25"
     inkscape:showpageshadow="2"
     inkscape:pageopacity="0.0"
     inkscape:pagecheckerboard="0"
     inkscape:deskcolor="#d1d1d1"
     showgrid="false"
     inkscape:zoom="1.0916667"
     inkscape:cx="-12.366412"
     inkscape:cy="210.229"
     inkscape:window-width="2768"
     inkscape:window-height="1282"
     inkscape:window-x="26"
     inkscape:window-y="23"
     inkscape:window-maximized="0"
     inkscape:current-layer="g8" />
  <g
     inkscape:groupmode="layer"
     inkscape:label="Image"
     id="g8"
     transform="translate(-1114.1284,-112.01067)">
    <path
       style="opacity:1;fill:#bd9746;fill-opacity:1;stroke-width:12.0238"
       d=""
       id="path2813" />
    <path
       id="rect2875"
       style="opacity:1;fill:url(#linearGradient2908);fill-opacity:1;stroke-width:4.22911"
       d="m 1307.0155,132.34315 c -1.3177,-0.0201 -2.5521,0.29466 -3.0448,0.83916 -0.3586,0.39618 -0.9206,0.58488 -1.75,0.58798 -1.4812,0.005 -2.3935,0.44753 -1.5735,0.76222 l 0.527,0.2022 -0.44,0.48543 -0.4394,0.48542 2.7364,-0.0576 2.7367,-0.0572 v -0.53961 0 c 0,-0.66748 1.0387,-0.82737 2.7966,-0.43239 l 1.2668,0.28437 -0.091,-1.08273 -0.091,-1.0833 -1.3152,-0.25816 c -0.4334,-0.0852 -0.8818,-0.12899 -1.321,-0.13579 z m 5.7691,0.18998 -0.8206,0.0944 -0.8204,0.0944 -0.084,3.80412 -0.084,3.80411 -3.7955,0.008 c -3.6193,0.008 -9.561,0.43703 -9.8355,0.71151 -0.071,0.0712 0.4662,1.11341 1.1941,2.31581 1.1651,1.925 2.6089,5.18382 2.6089,5.88858 0,0.13674 -0.9449,0.34139 -2.0991,0.45511 -2.4657,0.24298 -5.0617,0.95808 -5.0617,1.39392 0,0.16869 0.3286,0.73739 0.7302,1.26397 0.9849,1.2913 2.4186,4.42384 3.0257,6.61116 0.653,2.35317 0.911,9.41442 0.4329,11.84476 -0.1953,0.99295 -0.2443,1.91145 -0.1093,2.04132 0.2096,0.20106 2.1713,-0.0481 5.8793,-0.74648 l 0.859,-0.16142 -0.1981,1.49181 c -0.1094,0.82063 -0.089,1.49239 0.044,1.49239 0.1329,0 1.849,-0.39335 3.8141,-0.87411 v 0 c 8.7683,-2.14514 15.4806,-5.11868 21.8315,-9.67054 1.1814,-0.8466 2.289,-1.84796 2.4617,-2.22489 0.1726,-0.37696 0.314,-1.45587 0.314,-2.39798 0,-3.25448 -1.8868,-5.58821 -5.2213,-6.45791 -2.0428,-0.53281 -8.4592,-0.93876 -10.068,-0.63693 l -1.0757,0.20161 0.7255,1.25931 c 1.0836,1.87985 1.9169,4.83668 1.8979,6.73529 l -0.019,1.68411 -0.8142,-2.68583 c -0.4477,-1.47695 -1.4375,-3.85759 -2.1999,-5.29069 -0.8812,-1.65664 -1.2701,-2.67773 -1.0675,-2.80297 0.1753,-0.1083 2.5158,-0.26353 5.2009,-0.34499 5.588,-0.16949 5.2809,0.0572 4.1736,-3.07978 -0.87,-2.46477 -2.2624,-4.5127 -3.8497,-5.66245 -1.2786,-0.92629 -4.137,-1.89011 -6.5557,-2.21035 l -1.4172,-0.18764 v -3.88046 z m 26.2804,26.72266 c -0.1786,-0.0515 -0.3414,-0.0494 -0.4546,0.0326 -3.2256,2.33473 -5.3472,4.24187 -6.0499,5.43929 l -0.8275,1.41082 -0.06,3.59725 c -0.071,4.31998 -0.6235,7.18665 -1.8509,9.61809 -1.0351,2.05089 -1.7509,2.76441 -1.3781,1.3741 0.699,-2.60709 0.9843,-5.48939 0.5431,-5.48939 -0.1146,0 -1.5572,0.52741 -3.2074,1.17246 -1.6501,0.64505 -4.3426,1.43795 -5.9835,1.7622 -3.1054,0.61359 -7.3099,1.00211 -7.3099,0.6754 0,-0.10374 1.2419,-0.50633 2.7598,-0.89509 6.9697,-1.78501 13.1286,-4.28612 13.7131,-5.56866 0.387,-0.84946 -0.033,-4.19994 -0.5129,-4.09083 -0.1629,0.0371 -2.4494,0.99504 -5.0809,2.12876 -6.9566,2.99701 -12.9458,4.8274 -19.2193,5.87342 -2.4454,0.40775 -3.997,0.47801 -7.1863,0.32575 l -4.0675,-0.19405 0.2535,1.86651 c 0.3135,2.31206 0.7045,3.58158 1.6212,5.26098 0.3919,0.71808 0.7125,1.33905 0.7125,1.37992 0,0.0409 -0.3949,0.15339 -0.8781,0.24999 -0.9805,0.19611 -2.97,1.8189 -2.6374,2.15147 0.1171,0.11754 1.6616,0.0582 3.4311,-0.13228 6.2292,-0.67067 14.2813,-1.22491 17.7962,-1.22491 3.8662,0 10.7946,0.75512 18.9869,2.06988 6.0069,0.96402 6.8623,1.03679 6.8623,0.58506 0,-0.1805 -0.4432,-0.77065 -0.9843,-1.31174 -0.9632,-0.96325 -4.288,-2.2383 -5.836,-2.2383 -0.3516,0 -0.6388,-0.1243 -0.6388,-0.27562 0,-0.15132 0.8938,-1.46041 1.9865,-2.90904 2.2138,-2.9345 3.6815,-5.76205 3.6818,-7.09368 2e-4,-0.55255 -0.5193,-1.65411 -1.3968,-2.96206 -1.0986,-1.63747 -1.4239,-2.40738 -1.5233,-3.60541 l -0.1262,-1.52385 1.0012,-1.31234 c 0.5506,-0.7219 1.8744,-2.05106 2.941,-2.95332 1.0667,-0.90227 1.978,-1.79229 2.0251,-1.97782 0.1067,-0.42197 -0.5696,-1.06077 -1.1054,-1.21559 z m -25.2362,28.39746 c -6.9532,0.005 -11.7916,0.46343 -17.9016,1.69343 l -3.282,0.66082 -0.095,0.82167 c -0.061,0.53014 0.068,0.88486 0.3637,0.99823 0.252,0.0967 3.5172,-0.13617 7.2556,-0.51747 9.3183,-0.95044 18.2659,-0.9481 26.3397,0.006 3.2,0.37829 5.8739,0.74198 5.9422,0.80825 0.2737,0.26535 1.7177,0.0982 2.0536,-0.23775 0.5209,-0.52085 0.4386,-1.36861 -0.1637,-1.68528 -0.4976,-0.2616 -6.4511,-1.3848 -11.5616,-2.18119 -1.3799,-0.21503 -5.1563,-0.37014 -8.9509,-0.36714 z m -1.4225,5.11702 c -3.2547,0.0892 -6.5095,0.43155 -9.2439,1.01281 -1.1307,0.24036 -1.4172,0.42492 -1.4172,0.91198 v 0.61012 l 1.4172,-0.17948 c 7.0848,-0.8982 13.1887,-0.91852 18.4239,-0.0612 3.361,0.55042 4.0143,0.54649 4.2348,-0.028 0.3094,-0.80632 -0.6237,-1.20018 -4.1713,-1.75987 -2.7343,-0.43139 -5.9887,-0.59558 -9.2435,-0.5064 z m -89.1788,8.11989 c -5.0154,0.0117 -10.0214,0.13779 -10.8074,0.37003 -0.7738,0.22862 -1.784,0.91851 -2.7303,1.86477 -0.9462,0.94626 -1.636,1.95641 -1.8646,2.73013 -0.3982,1.34763 -0.5215,12.05713 -0.1387,12.03764 0.1235,-0.006 1.5664,-0.71114 3.2073,-1.56641 l 2.9837,-1.55474 0.078,-3.1328 c 0.069,-2.76234 0.1526,-3.19455 0.7046,-3.65494 l 0.6259,-0.52213 h 6.381 6.3804 l 4.2528,-2.12759 c 2.339,-1.16998 4.3199,-2.18805 4.402,-2.26277 0.2937,-0.26747 -1.5142,-1.55543 -2.6112,-1.8601 -0.8233,-0.22862 -5.8481,-0.33242 -10.8635,-0.32109 z m 23.186,0.008 c -2.9369,0 -4.3408,1.2906 -4.3408,3.99 0,1.4352 0.9834,2.98082 2.2133,3.47838 1.2444,0.50337 3.3223,0.31885 4.3706,-0.38753 2.0631,-1.39036 2.267,-4.25676 0.4336,-6.0902 l -0.9907,-0.99065 z m 111.2747,0.0501 c -4.9231,-0.0545 -9.6415,-0.0136 -10.4854,0.0915 -2.1811,0.27174 -4.4871,1.73478 -5.6157,3.56287 l -0.9056,1.46733 -0.093,6.06632 c -0.051,3.33655 -0.014,6.06689 0.085,6.06689 0.097,0 1.5822,-0.75075 3.2994,-1.66779 l 3.1224,-1.66723 v -3.08502 -3.08444 l 0.7861,-0.61828 0.7861,-0.61828 h 6.3787 6.378 l 4.1731,-2.09087 c 2.2951,-1.14979 4.1736,-2.20219 4.1736,-2.33912 0,-0.13691 -0.7049,-0.63975 -1.5665,-1.11711 l -1.5663,-0.8677 z m -53.2578,2.61475 -3.2073,0.0845 -3.2074,0.0851 -0.084,3.65027 -0.084,3.65029 -2.1537,-0.0699 -2.1539,-0.0699 -0.086,2.90903 -0.085,2.90903 h 2.2097 2.2103 l -0.036,6.48939 -0.036,6.48938 0.7821,1.66779 c 1.3773,2.93722 3.3652,3.79866 8.8401,3.83151 l 3.3566,0.0205 v -2.80415 -2.80356 l -2.5256,-0.10543 c -3.6977,-0.15405 -3.5713,0.0859 -3.6836,-6.97771 l -0.093,-5.80758 h 3.1503 3.1509 v -2.83445 -2.83445 h -3.1328 -3.1329 v -3.74001 z m -65.3414,4.23942 -3.2918,1.69461 -3.2919,1.69459 0.041,3.56813 0.041,3.56811 -0.7948,0.68354 -0.7945,0.68356 -7.5172,6e-4 -7.5168,6e-4 -4.1771,2.1672 -4.177,2.1672 -0.082,5.63392 -0.081,5.63451 2.6171,-0.19406 c 2.3056,-0.17054 2.6975,-0.28385 3.289,-0.9557 v -5.9e-4 l 0.6712,-0.7628 v -3.39911 -3.3997 l 9.9206,-0.0898 9.9205,-0.0892 1.1935,-0.6445 c 1.5624,-0.84305 2.6574,-2.02637 3.4067,-3.68175 l 0.6078,-1.34263 v -6.46839 z m 133.0697,0.25116 -3.282,1.64623 -3.2819,1.64567 v 3.40436 c 0,1.87234 -0.084,3.6218 -0.1853,3.88744 -0.4588,1.19545 -1.5527,1.35604 -9.2382,1.35604 h -7.3648 l -4.1373,2.1404 -4.1368,2.14098 v 5.46725 5.46785 h 2.5494 2.5494 l 0.7325,-0.7325 0.7326,-0.7325 v -3.44458 -3.44456 h 9.1949 c 10.1582,0 11.2552,-0.14796 13.2299,-1.78144 0.6006,-0.49675 1.4398,-1.60094 1.8648,-2.45392 l 0.7728,-1.55067 v -6.50801 z m -90.4295,2.4714 c -2.0035,-0.0598 -4.0491,-0.001 -5.1047,0.20629 -3.2212,0.63372 -5.4045,2.05766 -6.5395,4.26448 -0.3165,0.61536 -0.6097,1.11886 -0.6515,1.11886 -0.041,0 -0.073,-1.1748 -0.068,-2.61067 l 0.013,-2.61067 -2.4539,0.0309 c -2.8595,0.036 -4.6681,0.62234 -5.9054,1.91371 -0.4688,0.48938 -0.9291,0.88984 -1.0227,0.88984 -0.094,0 -0.1224,-0.60418 -0.063,-1.34262 l 0.1068,-1.34264 h -3.1632 -3.1626 v 12.08368 12.08367 h 3.2821 3.2819 v -7.02162 c 0,-7.5008 0.1422,-8.3957 1.5805,-9.93394 1.0803,-1.15554 1.7147,-1.36136 4.729,-1.53086 l 2.8787,-0.16142 -0.1581,0.96968 -0.1573,0.96968 h 3.3211 3.321 v -0.55069 c 0,-1.22668 1.0713,-1.68078 4.2231,-1.79017 4.8221,-0.16737 5.6229,0.29758 5.6229,3.26741 v 1.82223 l -0.5223,-0.21503 c -3.1696,-1.30608 -9.4826,-1.40724 -12.1582,-0.19465 -3.146,1.4258 -4.3134,3.33628 -4.3134,7.05931 0,3.84559 1.3443,5.87598 4.6823,7.07328 2.1659,0.77686 7.8301,0.72644 9.6262,-0.0857 0.7385,-0.33388 1.779,-1.02848 2.3124,-1.54369 l 0.9697,-0.93645 v 1.4009 1.4015 h 3.152 3.152 l -0.094,-9.32384 -0.094,-9.32382 -0.92,-1.641 c -0.9913,-1.76775 -2.9188,-3.3159 -4.8455,-3.89268 -0.8872,-0.26559 -2.8483,-0.44379 -4.8519,-0.5035 z m 41.7964,0.0979 c -3.7466,0.009 -4.5523,0.0993 -6.0116,0.67247 -2.2479,0.88303 -4.2074,2.66352 -5.2347,4.75516 l -0.8373,1.70508 v 5.5197 5.51971 l 0.6305,1.34263 c 0.702,1.49375 2.4774,3.38978 3.845,4.10656 2.0844,1.09248 3.2137,1.2548 8.2049,1.17947 l 4.9229,-0.0745 1.641,-0.76804 c 0.9025,-0.42243 2.0965,-1.15331 2.6532,-1.62411 1.1875,-1.00408 2.4119,-3.45321 2.4162,-4.83323 v -0.96969 h -3.2822 -3.282 v 0.5443 c 0,0.29958 -0.3461,0.8702 -0.7692,1.26803 l -0.7691,0.72377 -3.7114,0.099 -3.7121,0.0985 -1.0386,-1.03843 c -0.8483,-0.84842 -1.0388,-1.26319 -1.0388,-2.26219 v -1.22317 h 8.9507 8.9509 v -3.07045 c 0,-5.22362 -1.0829,-7.90874 -3.9818,-9.87277 -2.2481,-1.5231 -3.613,-1.8101 -8.5494,-1.79774 z m 61.8602,0.14277 c -2.3168,0.0789 -4.5328,0.3511 -5.4849,0.77678 -2.7491,1.2292 -4.6221,3.5396 -4.8145,5.93986 l -0.094,1.16839 3.0448,0.0845 3.0453,0.0851 0.464,-0.89683 c 0.6859,-1.32645 1.2833,-1.51046 4.8962,-1.51046 h 3.2854 l 0.7843,0.67423 c 0.6459,0.55551 0.8149,1.01225 0.9575,2.58561 l 0.173,1.91138 -0.5681,-0.24066 c -2.0351,-0.86225 -3.728,-1.08234 -7.4299,-0.96502 -4.2771,0.13555 -5.3386,0.44117 -7.197,2.0728 -1.576,1.38387 -2.1873,2.92471 -2.1951,5.53253 -0.014,3.31614 1.1052,5.35435 3.644,6.66012 1.7782,0.91464 3.1515,1.1387 6.494,1.05884 2.5292,-0.0604 3.3691,-0.19876 4.3606,-0.71736 0.6755,-0.35329 1.6412,-0.98983 2.1457,-1.4143 l 0.9172,-0.77156 0.093,1.27971 0.093,1.27969 h 2.9836 2.9837 l 0.08,-8.35415 c 0.049,-5.11867 -0.044,-8.9526 -0.2407,-9.89898 -0.617,-2.97558 -2.8338,-5.06184 -6.3315,-5.95792 -1.3548,-0.3471 -3.7723,-0.46121 -6.089,-0.38229 z m 21.9797,0.2564 -3.2075,0.0845 -3.2073,0.0851 -0.094,7.45907 c -0.1107,8.71029 0.1424,10.82657 1.5401,12.90359 1.8169,2.69981 4.0416,3.65953 8.4574,3.64853 2.9461,-0.008 4.3592,-0.48119 5.9847,-2.00753 l 0.9698,-0.91025 v 2.22315 c 0,2.39698 -0.4338,3.62606 -1.5567,4.4125 -0.5027,0.35213 -1.4305,0.46345 -3.8058,0.45629 -3.2635,-0.0104 -3.7884,-0.17433 -4.4352,-1.38867 l -0.3474,-0.65209 -3.1333,-0.0938 -3.1333,-0.0932 v 0.78378 c 0,1.76603 1.4946,4.24239 3.321,5.50804 1.9599,1.35832 3.0734,1.58733 7.7824,1.60137 3.6866,0.0104 4.6464,-0.083 5.9912,-0.58622 v 0 c 3.2475,-1.21507 5.3026,-3.88157 5.8763,-7.62516 0.1952,-1.27389 0.2853,-6.59687 0.2348,-13.85403 l -0.082,-11.78531 h -3.2821 -3.282 l -0.1492,7.30989 c -0.1597,7.82654 -0.2431,8.26719 -1.8368,9.75096 -1.0373,0.96595 -2.1451,1.28844 -4.4316,1.28843 -2.4552,0 -3.4486,-0.6485 -3.8846,-2.53607 -0.1515,-0.6564 -0.2787,-4.5214 -0.2826,-8.58841 z m -164.3977,0.0204 v 12.08368 12.08367 h 3.282 3.2819 v -12.08367 -12.08368 h -3.2819 z m 80.9722,5.07217 h 3.1566 l 0.9156,0.8205 c 0.8623,0.77275 1.648,2.84364 1.2954,3.41426 -0.082,0.13213 -2.6247,0.24067 -5.6508,0.24067 h -5.5017 v -0.92365 c 0,-1.17495 0.7428,-2.43844 1.8018,-3.06404 0.6247,-0.36892 1.5965,-0.48774 3.9831,-0.48774 z m -46.1536,8.9899 c 0.7094,-0.0445 1.603,-0.028 2.7256,0.0285 5.0257,0.2531 6.213,1.29782 3.9958,3.51508 -1.3374,1.3375 -2.7424,1.78384 -5.6218,1.7861 -1.6975,0.001 -2.2803,-0.12261 -2.9089,-0.61713 -0.6565,-0.51637 -0.7862,-0.85714 -0.7862,-2.06698 0,-1.82585 0.4676,-2.51197 2.5955,-2.64563 z m 105.3983,0.30069 c 0.7003,-0.0379 1.6038,-0.0245 2.7681,0.0118 3.8537,0.12144 5.5994,0.63069 5.5994,1.63401 0,0.80294 -2.4354,2.98884 -3.7306,3.34842 -1.2227,0.33942 -4.7178,0.41681 -5.5185,0.12234 -1.1219,-0.41248 -1.4919,-1.07251 -1.4919,-2.66195 0,-1.76961 0.2727,-2.3416 2.3735,-2.45508 z" />
  </g>
</svg>
