<?xml version="1.0" encoding="UTF-8" standalone="no"?>
<svg
   viewBox="0 0 400 150"
   version="1.1"
   id="svg6552"
   sodipodi:docname="shopify.svg"
   width="400"
   height="150"
   inkscape:version="1.2.2 (b0a8486541, 2022-12-01)"
   xmlns:inkscape="http://www.inkscape.org/namespaces/inkscape"
   xmlns:sodipodi="http://sodipodi.sourceforge.net/DTD/sodipodi-0.dtd"
   xmlns="http://www.w3.org/2000/svg"
   xmlns:svg="http://www.w3.org/2000/svg">
  <defs
     id="defs6556" />
  <sodipodi:namedview
     id="namedview6554"
     pagecolor="#ffffff"
     bordercolor="#000000"
     borderopacity="0.25"
     inkscape:showpageshadow="2"
     inkscape:pageopacity="0.0"
     inkscape:pagecheckerboard="0"
     inkscape:deskcolor="#d1d1d1"
     showgrid="false"
     inkscape:zoom="2.1510673"
     inkscape:cx="500.2168"
     inkscape:cy="210.82557"
     inkscape:window-width="3782"
     inkscape:window-height="1536"
     inkscape:window-x="0"
     inkscape:window-y="0"
     inkscape:window-maximized="1"
     inkscape:current-layer="svg6552" />
  <path
     d="m 112.47306,46.634496 c -0.0498,-0.44785 -0.39809,-0.646894 -0.69666,-0.646894 l -6.31965,-0.149283 -5.523469,-5.37419 c -0.49761,-0.497611 -1.49283,-0.398089 -1.841158,-0.248805 L 95.604072,41.0115 c -0.298566,-0.845937 -0.696654,-1.890919 -1.244025,-2.985661 -1.741636,-3.38375 -4.428731,-5.224908 -7.563676,-5.224908 a 2.4880512,2.4880512 0 0 0 -0.696654,0.09952 l -0.298566,-0.348327 c -1.393309,-1.44307 -3.085184,-2.139724 -5.274669,-2.089963 -4.030643,0.09952 -8.111046,3.085183 -11.445035,8.310091 a 34.185823,34.185823 0 0 0 -4.627775,11.843123 c -4.627775,1.492831 -7.961764,2.488052 -8.061286,2.488052 -2.338768,0.746415 -2.388529,0.796176 -2.687095,3.035422 -0.149283,1.691875 -6.31965,49.512221 -6.31965,49.512221 l 51.900747,8.95698 22.442222,-5.52347 z m -19.506322,-4.777059 -3.980882,1.244026 c 0,-2.040202 -0.348327,-4.976102 -1.244025,-7.364632 3.085183,0.497611 4.627775,3.980882 5.224907,6.120606 z m -6.767499,2.040202 -8.658418,2.687095 a 20.89963,20.89963 0 0 1 4.329209,-8.459373 c 0.746415,-0.845938 1.791397,-1.691875 2.9359,-2.139724 1.194265,2.338768 1.44307,5.672756 1.393309,7.961763 z m -5.523474,-10.69862 c 0.995221,0 1.741636,0.149283 2.388529,0.646894 a 10.748381,10.748381 0 0 0 -3.134944,2.488051 23.636486,23.636486 0 0 0 -5.37419,11.245991 l -7.115827,2.189485 c 1.492831,-6.568455 6.966543,-16.421138 13.236432,-16.570421 z"
     fill="#95bf47"
     id="path6540"
     style="fill-rule:evenodd;stroke-width:0.49761" />
  <path
     d="m 111.7764,45.987602 -6.31965,-0.149283 -5.523469,-5.37419 a 0.99522046,0.99522046 0 0 0 -0.646893,-0.298566 v 74.492247 l 22.442222,-5.57323 -9.15603,-62.450084 c -0.0995,-0.44785 -0.49761,-0.646894 -0.74641,-0.646894 z"
     fill="#5e8e3e"
     id="path6542"
     style="fill-rule:evenodd;stroke-width:0.49761" />
  <path
     d="m 86.796371,57.53216 -2.637334,9.75316 c 0,0 -2.886139,-1.293787 -6.369411,-1.094742 -5.025863,0.298566 -5.025863,3.533032 -5.025863,4.329209 0.298566,4.37897 11.743601,5.324429 12.440255,15.5752 0.497611,8.061285 -4.229686,13.584759 -11.146469,13.982843 A 17.01827,17.01827 0 0 1 61.268966,95.649103 l 1.741636,-7.464153 c 0,0 4.627775,3.483271 8.26033,3.234466 a 3.2344665,3.2344665 0 0 0 3.134944,-3.483271 c -0.348327,-5.672757 -9.703399,-5.32443 -10.300531,-14.679502 -0.497611,-7.912003 4.677536,-15.824005 16.07281,-16.570421 4.428731,-0.298566 6.667977,0.845938 6.667977,0.845938 z"
     fill="#ffffff"
     id="path6544"
     style="fill-rule:evenodd;stroke-width:0.49761" />
  <g
     fill="#000000"
     id="g6548"
     transform="matrix(0.49761023,0,0,0.49761023,47.385641,30.362641)"
     style="fill-rule:evenodd;fill:#ffffff;fill-opacity:1">
    <path
       d="m 210.6,96.4 c -5.2,-2.8 -8,-5.2 -8,-8.5 0,-4.2 3.9,-6.8 9.7,-6.8 6.8,0 13,2.8 13,2.8 L 230,69.2 c 0,0 -4.4,-3.4 -17.3,-3.4 -18,0 -30.6,10.4 -30.6,24.9 0,8.3 5.8,14.5 13.6,19 6.4,3.5 8.6,6 8.6,9.8 0,4 -3.2,7.1 -9,7.1 -8.7,0 -17,-4.5 -17,-4.5 l -5.1,14.6 c 0,0 7.6,5.1 20.3,5.1 18.6,0 32,-9.1 32,-25.5 -0.2,-9 -6.9,-15.3 -15,-19.9 z m 73.8,-30.8 c -9.1,0 -16.3,4.4 -21.8,11 l -0.2,-0.2 7.9,-41.4 h -20.6 l -20.1,105.5 h 20.6 l 6.8,-36 c 2.7,-13.7 9.7,-22.1 16.3,-22.1 4.6,0 6.5,3.2 6.5,7.7 0,2.8 -0.3,6.3 -0.9,9.1 l -7.8,41.3 h 20.6 l 8,-42.6 c 0.9,-4.5 1.5,-9.9 1.5,-13.6 0.1,-11.7 -6,-18.7 -16.8,-18.7 z m 63.6,0 c -24.9,0 -41.3,22.4 -41.3,47.4 0,16 9.9,28.8 28.4,28.8 24.3,0 40.8,-21.8 40.8,-47.3 0.1,-14.8 -8.6,-29 -28,-29 z M 337.9,126 c -7,0 -10,-6 -10,-13.5 0,-11.8 6,-31 17.3,-31 7.3,0 9.7,6.3 9.7,12.4 0,12.6 -6.2,32.1 -17,32.1 z M 428.7,65.6 C 415,65.6 407,77.9 407,77.9 h -0.2 L 408,66.8 h -18.3 c -0.8,7.4 -2.5,18.9 -4.1,27.4 l -14.4,75.5 h 20.6 l 5.7,-30.5 h 0.5 c 0,0 4.3,2.6 12,2.6 24.3,0 40.2,-24.8 40.2,-50 0,-13.8 -6.3,-26.2 -21.4,-26.2 z M 409,126.4 c -5.4,0 -8.5,-3 -8.5,-3 l 3.4,-19.3 c 2.4,-13 9.1,-21.5 16.3,-21.5 6.3,0 8.3,5.9 8.3,11.4 0,13.4 -8,32.4 -19.5,32.4 z M 479.5,36 c -6.6,0 -11.8,5.2 -11.8,12 0,6 4,10.3 9.8,10.3 h 0.2 c 6.5,0 12,-4.4 12,-12 0,-6 -4,-10.3 -10.2,-10.3 z m -28.8,104.4 h 20.5 l 14,-73.1 h -20.7 z m 87,-73.2 h -14.3 l 0.7,-3.4 c 1.2,-7.1 5.4,-13.3 12.3,-13.3 3.7,0 6.6,1 6.6,1 l 4,-16.1 c 0,0 -3.5,-1.8 -11.2,-1.8 a 31,31 0 0 0 -20.2,6.8 c -7,6 -10.4,14.6 -12,23.4 l -0.6,3.4 h -9.6 l -3,15.6 h 9.6 l -11,57.7 h 20.6 l 11,-57.7 h 14.2 l 3,-15.6 z m 49.7,0.1 c 0,0 -12.9,32.5 -18.6,50.3 h -0.2 c -0.4,-5.7 -5.2,-50.3 -5.2,-50.3 h -21.6 l 12.4,67.1 c 0.2,1.5 0.1,2.4 -0.5,3.4 a 36.1,36.1 0 0 1 -11.2,12.4 47.6,47.6 0 0 1 -11.7,5.9 l 5.7,17.5 c 4.2,-0.8 13,-4.4 20.2,-11.2 a 138,138 0 0 0 27,-41 l 25.3,-54 h -21.6 z"
       id="path6546"
       style="fill:#ffffff;fill-opacity:1" />
  </g>
</svg>
