<svg id="Layer_1" data-name="Layer 1" xmlns="http://www.w3.org/2000/svg" xmlns:xlink="http://www.w3.org/1999/xlink" viewBox="0 0 527.21 162.83"><defs><style>.cls-1{fill:#3b3935;}.cls-2{fill:#1f1c18;}.cls-3{fill:#e9b010;}.cls-4{fill:#fff;}.cls-5{fill:url(#linear-gradient);}.cls-6{fill:url(#linear-gradient-2);}.cls-7{fill:url(#linear-gradient-3);}</style><linearGradient id="linear-gradient" x1="174.67" y1="119.78" x2="171.95" y2="96.43" gradientUnits="userSpaceOnUse"><stop offset="0" stop-color="#fff"/><stop offset="1" stop-color="#e9b010"/></linearGradient><linearGradient id="linear-gradient-2" x1="270.79" y1="58.73" x2="264.29" y2="19.73" xlink:href="#linear-gradient"/><linearGradient id="linear-gradient-3" x1="443.68" y1="148.04" x2="447.68" y2="86.04" xlink:href="#linear-gradient"/></defs><title>logo</title><path class="cls-1" d="M73.43,162.49l-0.51-4.41a3.81,3.81,0,0,0-1.27-2.51,4,4,0,0,0-2.66-.86,6.38,6.38,0,0,0-.78,0l-4.6.54a4.45,4.45,0,0,0-2.76,1.24,3.36,3.36,0,0,0-.46.6l-0.6-5.18-4.82.56h0l-0.67.08-3.38.39,0.57,4.9h0l0,0.26,0.07,0.61a3.79,3.79,0,0,0-.45-0.55,3.91,3.91,0,0,0-2.85-1.09,5.62,5.62,0,0,0-.73,0l-4,.47-0.43-3.74-4.8.56,0.6,5.19,0,0a3.92,3.92,0,0,0-2.82-1.06,5.32,5.32,0,0,0-.74,0l-4.57.53A4.45,4.45,0,0,0,28,160.37a3.55,3.55,0,0,0-.75,1.21,3.7,3.7,0,0,0-.47-0.56A4,4,0,0,0,23.94,160a5.37,5.37,0,0,0-.71,0l-12.5,1.46,1.45,12.31,4.82-.56-0.87-7.48,1.11-.13,0.87,7.46L23,172.5,22.12,165l1.11-.13,0.88,7.47,4.83-.56-0.13-1.15a4.11,4.11,0,0,0,2.63.83c0.25,0,.48,0,0.71,0l4.65-.54a5,5,0,0,0,2.73-1.1,3.09,3.09,0,0,0,.52-0.59l0.15,1.28,8.9-1a4.44,4.44,0,0,0,2.74-1.26,3.53,3.53,0,0,0,.74-1.19l0.23,2,4.84-.56h0l4-.47-0.17-1.45,0.07,0.06a4,4,0,0,0,2.81,1c0.22,0,.44,0,0.65,0l8.48-1L73,162.54Zm-41.13,4h-0.1l-0.31-2.64,3.48-.41,0.31,2.65Zm6.35-4,0.62-.08h0Zm9.09,2.17-3.3.38-0.31-2.65,3.48-.41,0.31,2.64Zm17.15-1.24h0L65,164.22Zm301.23-35.11L365.61,124a3.81,3.81,0,0,0-1.26-2.51,4,4,0,0,0-2.66-.86,6.45,6.45,0,0,0-.78,0l-4.6.54a4.47,4.47,0,0,0-2.76,1.24,3.36,3.36,0,0,0-.55.75l-0.19-1.59-7.92.92a4.46,4.46,0,0,0-2.75,1.23,3.37,3.37,0,0,0-.52.69l0-.35h0l-0.57-4.9-1.49.17-3.38.39,0.43,3.74-3,.35-1.64,4.7-2.66-4.19-5.32.62h0l-2.79.33,0.17,1.49-0.18-1.49a4.49,4.49,0,0,0-2.75,1.23,3.51,3.51,0,0,0-.79,1.27A3.27,3.27,0,0,0,317,127a4.06,4.06,0,0,0-2.66-.86,6.77,6.77,0,0,0-.78,0l-4.6.54a4.48,4.48,0,0,0-2.76,1.24l-0.16.17L305.92,127l-8.77,1a4.78,4.78,0,0,0-2.72,1.09,3.51,3.51,0,0,0-1.12,2.67,4.46,4.46,0,0,0,0,.59l0.11,0.93a3.74,3.74,0,0,0,1.24,2.48l0.12,0.1-1,.12,0.56,4.84,8.75-1a4.84,4.84,0,0,0,2.75-1.11,3.2,3.2,0,0,0,.77-1,3.52,3.52,0,0,0,.27.29,4,4,0,0,0,2.81,1,6.3,6.3,0,0,0,.66,0l8.47-1,4.39-.51-0.87-7.5,4.55-.53,4.46,7,3-.35,2.78-8.09,0.9,7.71,4.84-.56-0.18-1.56,0.1,0.11a3.93,3.93,0,0,0,2.85,1.08l0.65,0,7.94-.92-0.19-1.6,0.19,0.2a4,4,0,0,0,2.81,1,6.3,6.3,0,0,0,.66,0l8.48-1-0.48-4.09Zm-60.53,6.4-0.23,0,0.23,0h0Zm40.86-4.88h-0.12L346,127.22l6.59-.77,0.31,2.68ZM150.58,145.15l-1.49.17-3.33.39,0.87,7.49-3.46.4-0.87-7.49-3.25.38v0l-1.49.17-1.27.15-0.43-3.71-4.82.56,0.43,3.7-1.94.22-0.43-3.7-1.49.17-2.85.33h0l-4.82.56,0.17,1.49,0.43,3.71-0.07-.07a3.91,3.91,0,0,0-2.79-1,5.51,5.51,0,0,0-.75,0L109,150l0.52,4.49a3.25,3.25,0,0,0-.31.54l-0.58-5-4.83.56L104,152.1l0.7,6-3.18.37L100.66,151l-4,.46h0l-8.85,1L88,154l-0.19-1.49a4.41,4.41,0,0,0-2.76,1.29,4.08,4.08,0,0,0-1,2.85,6.15,6.15,0,0,0,0,.71l0.43,3.74a4.45,4.45,0,0,0,1.23,2.74,3.92,3.92,0,0,0,2.8,1c0.24,0,.46,0,0.68,0l4.07-.47,0.44,3.74,4.82-.56L98,162.3l0,0a3.92,3.92,0,0,0,2.82,1.06c0.23,0,.46,0,0.69,0l8.59-1-0.19-1.66a3.18,3.18,0,0,0,.36.39,3.75,3.75,0,0,0,2.59.91c0.24,0,.47,0,0.69,0l8.25-1h0l4.82-.56h0l4.33-.5-0.88-7.51,2-.23,0.87,7.51,4.82-.56-0.88-7.51,1.18-.14,0.38,3.28a4.46,4.46,0,0,0,1.23,2.74,3.47,3.47,0,0,0,1,.69l0.5,4.32,7-.82a4.46,4.46,0,0,0,2.76-1.25,4,4,0,0,0,1-2.83,6.89,6.89,0,0,0,0-.69Zm-61.3,14.73L89,157.24l0.12,0,3.35-.39,0.31,2.65Zm24.44-1.34h0ZM241,67a8.9,8.9,0,0,0,5.46.83h0.15l22.2-2.56h0.08V65.17l7.38-.86,0.37-1.52,4.71-19.48L295,41.73l0.27,0a4.51,4.51,0,0,1-.11.6l-4.95,20.44,10.11-1.18,1.08-4.45a4.38,4.38,0,0,0,1.63,2.27l0.11,0.08,0.11,0.06a8.75,8.75,0,0,0,3.83,1.12h0.2L332,57.8v0.05l10.11-1.18,5.09-21,13.59-1.58,0.33,0a3.05,3.05,0,0,1-.06.32L356,55l10.16-1.18,0.84-3.5a5.36,5.36,0,0,0,2,1.75,10.11,10.11,0,0,0,5.92.76l12.81-1.49c-0.09.32-.19,0.62-0.28,0.85l-0.05.13h-0.22l-21.57,2.51-2.3,9.54,22.5-2.62a12.9,12.9,0,0,0,11.83-10.52l1.42-5.88a5.64,5.64,0,0,0,2.55,2.84,10.06,10.06,0,0,0,5.9.82l23.92-2.79,2.18-9-25,2.91L409,38.75c0-.16,0-0.25.06-0.29l0.19-.8,24.09-2.81,2.36-9.73a9.67,9.67,0,0,0,.25-3.28,5.49,5.49,0,0,0-3.16-4.46,11.17,11.17,0,0,0-6-.64L427,19l-0.26-2.23-13.39,1.56a13.83,13.83,0,0,0-7.73,3.23,11.85,11.85,0,0,0-1.07,1.08l0.82-3.38L380.81,22.1l0.26,2.23-0.27-2.23a13.71,13.71,0,0,0-7.74,3.29A12.35,12.35,0,0,0,370.91,28,5.65,5.65,0,0,0,368.31,25a10,10,0,0,0-5.91-.8l0.25,2.24-0.26-2.23L339.44,26.9l-1.56,6.44a5.83,5.83,0,0,0-3-4.43,10.13,10.13,0,0,0-5.93-.76l-22.3,2.6-1.32,5.47a5.77,5.77,0,0,0-2.82-3.5,10.18,10.18,0,0,0-6-.79l-12.69,1.48,2.54-10.51-10.14,1.18,0,0.09L254.7,26.68a12.53,12.53,0,0,0-7.32,3.22,14.13,14.13,0,0,0-3.89,7.25l-4.94,20.94a12.82,12.82,0,0,0-.37,4.35A5.81,5.81,0,0,0,241,67ZM411.95,28.64a3.81,3.81,0,0,1,2.09-.77l11.47-1.34L425.16,28l-13.93,1.62A2.69,2.69,0,0,1,411.95,28.64ZM376.22,43.4l0-.12V43.18a3.62,3.62,0,0,1,.09-0.57l2-8.15a3.47,3.47,0,0,1,1.13-1.94,5,5,0,0,1,2.55-1l10.9-1.27-3,12.19-13.84,1.61C376.14,43.87,376.18,43.64,376.22,43.4Zm-63.45,2.81a0.69,0.69,0,0,1,.33-0.42,1.77,1.77,0,0,1,.24-0.14l12.81-1.49-1.26,5.27h0l-0.23.89-13,1.51Zm-7.2-6.91,1.58-.18a9.64,9.64,0,0,0-1.79,1.74A13.65,13.65,0,0,0,305.57,39.3ZM249,57.27L253.27,39a4.21,4.21,0,0,1,1-2.08,2.59,2.59,0,0,1,1.6-.71L273.8,34.1l-5.21,21.54-19.13,2.23a4.1,4.1,0,0,1-.59,0A3.7,3.7,0,0,1,249,57.27ZM129.71,79.72l0.11,0.08a7,7,0,0,0,4.89,1.13l18.8-2.19a11.69,11.69,0,0,0,8.08-5.2,5.57,5.57,0,0,0,2.3,2.38,9.83,9.83,0,0,0,5.89.84l-0.25-2.24,0.26,2.24L190,74.39h0l7.53-.88L197.92,72l2.25-9.31,3.71-2.59L212,71.81l13.77-1.6L213.63,53.28l13.77-9.6-1.55-4.08-7.72.9L203,51.1l4.6-19-10.11,1.18-2.54,10.5L175.61,46a13.86,13.86,0,0,0-7.66,3.18,11.57,11.57,0,0,0-1.29,1.32,6,6,0,0,0-2-2.81,12.85,12.85,0,0,0-.05-2.33,9.84,9.84,0,0,0-3.75-6.84,11,11,0,0,0-8-1.93c-7.23.95-13.71,6.67-16.2,13.56a11.48,11.48,0,0,0-5.29,6.89l-3.56,15-18.58,2.17,7.37-31.39-11.32,1.32L95.53,85.43l33.76-3.94Zm41.58-13.64,2-8.16a3.59,3.59,0,0,1,.93-1.81,2.59,2.59,0,0,1,1.57-.65l16.8-2-2.72,11.25-17.33,2a4.47,4.47,0,0,1-1.32,0A3.15,3.15,0,0,1,171.29,66.08ZM152.58,44.19a4.08,4.08,0,0,1,3,.65,3.21,3.21,0,0,1,1.18,2l-10.71,1.25A10.86,10.86,0,0,1,152.58,44.19Zm165.26,66.15a12.68,12.68,0,0,0,4.1-6.65l0.71-2.79a11.1,11.1,0,0,0,.36-4,5.54,5.54,0,0,0-3-4.46,9.94,9.94,0,0,0-5.71-.69l-12,1.4a1.73,1.73,0,0,1,.42-0.71,1.35,1.35,0,0,1,.82-0.33l21.85-2.55L328,79.42l-23.55,2.74A13.8,13.8,0,0,0,297,85.11a12.22,12.22,0,0,0-3.69,5.56,5.68,5.68,0,0,0-2.64-3,10.19,10.19,0,0,0-6-.79l0.25,2.24-0.26-2.23L272,88.39l2.54-10.51-10.14,1.18-2,8.24L251.3,88.6l1.62-6.36-11.24,3.43-1.06,4.17-2.06.24,1.88-7.4L229.15,84l-2.41,9.49h0l-1.32,5.21V98.57a6.32,6.32,0,0,0-3.6-5.17,13.14,13.14,0,0,0-7.12-.76l0.25,2.23-0.26-2.23-39.55,4.61v0L151.58,100l-0.18,0,0.42-.3-16.35,1.9-15.36,11.09,5.14-20.09-10.13,1.18-2.85,11.12-19.34,2.25a13.71,13.71,0,0,0-7.74,3.31,12.57,12.57,0,0,0-1.76,2,6,6,0,0,0-1.85-2.36,12.88,12.88,0,0,0-.05-2.32,9.84,9.84,0,0,0-3.75-6.84,11,11,0,0,0-8-1.93c-7.23.94-13.71,6.67-16.2,13.56a11.48,11.48,0,0,0-5.29,6.89l-3.64,15.33-18.09,2.11,7.37-31.39L22.59,106.8,12.9,148.08l33.76-3.93,0.42-1.78a7.1,7.1,0,0,0,4.61.93l18.78-2.19a11.69,11.69,0,0,0,7.85-4.87,5.56,5.56,0,0,0,2.22,2.33,9.46,9.46,0,0,0,5.8.87l24.37-2.84h0l3.38-.4L117,124.75l3.75-2.7,7.71,12.36,30.46-3.55a13.37,13.37,0,0,0,6.07-2.71,11.35,11.35,0,0,0,2-2.09l-1,4,11.33-1.32,5.34-22.44,8.86-1a4,4,0,0,1,.92,0h0c0,0.09,0,.21-0.06.34l-5.23,21.95,11.55-1.35,5.33-22.38,8.67-1a4.32,4.32,0,0,1,1.12,0,3,3,0,0,1-.07.45l-5.17,21.85,21.64-2.52,6-23.64,2.06-.24-3.54,13.94a8.82,8.82,0,0,0-.26,3.21,6.6,6.6,0,0,0,1.13,3,5.56,5.56,0,0,0,5.37,2.45l13.5-1.57-0.17.69,10.08-1.18,5.08-21,13.66-1.57,0.27,0a4.42,4.42,0,0,1-.11.61l-4.95,20.44,10.11-1.18,0.19-.77,21.68-2.53A14,14,0,0,0,317.84,110.34ZM63,110.43a10.85,10.85,0,0,1,6.54-3.87,4.09,4.09,0,0,1,3,.65,3.21,3.21,0,0,1,1.18,2Zm43.57,16.7-17.35,2a4,4,0,0,1-1.24,0,3.45,3.45,0,0,1,.13-0.89l-2.18-.56,2.18,0.56,2.21-8.63a4.24,4.24,0,0,1,1-2,2.55,2.55,0,0,1,1.57-.68l16.75-2Zm52.67-6.59a2.67,2.67,0,0,1-1.46.56l-21.12,2.46-0.15.61L130.6,115l10.2-7.34a15,15,0,0,0-.65,2l-0.72,2.84a10.48,10.48,0,0,0-.34,3.73,5.45,5.45,0,0,0,3,4.41,10.24,10.24,0,0,0,5.73.65l11.94-1.39A2.07,2.07,0,0,1,159.26,120.54Zm10.68-7a5.45,5.45,0,0,0-2.74-3.28,10,10,0,0,0-5.71-.7l-12,1.4a1.7,1.7,0,0,1,.42-0.71,1.35,1.35,0,0,1,.83-0.33l20.67-2.41Zm72.6,0.34,0.32,0.08h0l1.68,0.45Zm14.2-3.16-11.41,1.33L249,97.48l11.22-1.31ZM293.67,92l1.48,0.38L293.67,92h0Zm-1.2,8.34a5.27,5.27,0,0,0,2.47,2.47,10.25,10.25,0,0,0,5.73.65L312.61,102a2.11,2.11,0,0,1-.51.68,2.69,2.69,0,0,1-1.46.56l-19.42,2.26Zm-16,26.36,0.17,1.49,0.43,3.7-0.06-.06a3.91,3.91,0,0,0-2.79-1,5.35,5.35,0,0,0-.73,0h0l-7.92.92,0.52,4.49-0.07.11,0-.3a4.53,4.53,0,0,0-1.23-2.79,4,4,0,0,0-2.83-1.06,5.85,5.85,0,0,0-.69,0l-8.85,1,0.17,1.45,0,0a3.92,3.92,0,0,0-2.82-1.06,5.6,5.6,0,0,0-.74,0l-4.57.54a4.45,4.45,0,0,0-2.77,1.25,3.42,3.42,0,0,0-.51.68l0-.37h0l-0.57-4.9-1.49.17-3.38.39,0.43,3.74-7.88.92a4.78,4.78,0,0,0-2.72,1.09,3,3,0,0,0-.27.27l-0.12-1-8.77,1a4.79,4.79,0,0,0-2.72,1.09,3.27,3.27,0,0,0-.91,1.38,3.29,3.29,0,0,0-.66-0.76,4,4,0,0,0-2.66-.86,6.36,6.36,0,0,0-.78,0l-4.6.54a4.79,4.79,0,0,0-2.29.83l-0.5-4.29-2.9.34a4.42,4.42,0,0,0-2.76,1.25,4,4,0,0,0-1,2.83,6.3,6.3,0,0,0,0,.71l0.1,0.89,0,0a3.93,3.93,0,0,0-2.82-1.06,5.84,5.84,0,0,0-.73,0l-4.59.54a4.46,4.46,0,0,0-2.77,1.25l-0.19.22-0.13-1.1-5.21.61,0.17,1.49-0.18-1.49a4.48,4.48,0,0,0-2.75,1.23,3.53,3.53,0,0,0-.83,1.4,3.79,3.79,0,0,0-.54-0.7,3.88,3.88,0,0,0-2.83-1.09,5.74,5.74,0,0,0-.72,0l-8.83,1,1.87,16.06,4.82-.56-0.44-3.73,4-.47a4.45,4.45,0,0,0,2.74-1.22,3.37,3.37,0,0,0,.49-0.63l0.17,1.45,4.82-.56-0.87-7.49,3.47-.41,0.42,3.62a3.87,3.87,0,0,0,1.26,2.55,4.06,4.06,0,0,0,2.69.89c0.25,0,.49,0,0.72,0l4.64-.54a5,5,0,0,0,2.73-1.1,3.1,3.1,0,0,0,.52-0.59l0.15,1.28,4.82-.56-0.88-7.5,0.36,0h0.08l0.38,3.25a4.46,4.46,0,0,0,1.25,2.75,4,4,0,0,0,2.81,1c0.22,0,.44,0,0.65,0l8.48-1h0l8.41-1a4.85,4.85,0,0,0,2.75-1.11,3,3,0,0,0,.26-0.26l0.12,1,8.75-1a4.86,4.86,0,0,0,2.75-1.11,3.13,3.13,0,0,0,.49-0.55l0.15,1.26,4.84-.57-0.16-1.38,0.16,0.14a4.06,4.06,0,0,0,2.69.89c0.25,0,.49,0,0.71,0l4.64-.54a4.94,4.94,0,0,0,2.73-1.1,3.09,3.09,0,0,0,.52-0.59l0.15,1.28,4.82-.56-0.87-7.49,3.46-.4,0.87,7.48,4.84-.57-0.15-1.25,0,0a3.76,3.76,0,0,0,2.59.91,6.51,6.51,0,0,0,.69,0l9.09-1.06,4-.46-1.87-16.07ZM170.44,150.42h0l-3.07.37-0.31-2.65,3.38-.39h0.09l0.31,2.64Zm0.64,0.28h0l0.13,1.14Zm3.37-3.91-0.65.08,0.65-.08h0ZM188,148.38h-0.1l-0.31-2.64,3.48-.41L191.4,148Zm6.36-4,0.61-.08h0Zm4.56-4.88,0-.38,0,0.38h0Zm6.34,7.61h0l0.09,0.74Zm8.45-1.74,0-.29,0.18,0.16,0.12,0.09Zm11.13-1.19-0.31,0,0.31,0h0Zm3.78-4.39h0Zm8,0.2,0,0.14,0,0-0.13-.11Zm0.32,2.77-0.58.07,0.58-.07h0Zm8.94-1.14h-0.1L245.52,139l3.48-.41,0.31,2.65Zm6.36-4,0.61-.08h0Zm272.77,30.74-5.47-11.54-71.21-30.75L455,113.79l-21-8.77,3.25-1.69,0.25-.25a5.53,5.53,0,0,0,1.58-4.35,5.23,5.23,0,0,0-1.86-3.33l-0.05,0-0.06,0a6.42,6.42,0,0,0-4.73-1.16,10.85,10.85,0,0,0-3.54,1.09l-1,.45a23.72,23.72,0,0,0-3.63-6,22.38,22.38,0,0,0-.7-11.1l70.17-26.81-1.36,11.54,6.43-2.4,6.87,19,26.57-9.64L525.3,51l5.87-2.19-12.14-9a20.23,20.23,0,0,0,0-2.45c0-.11,0-0.21,0-0.28a3.65,3.65,0,0,0-1.56-2.59,5.65,5.65,0,0,0-2.89-.89,8.8,8.8,0,0,0-1.47,0,2.07,2.07,0,0,0-.47.11L412.22,65.38a22.5,22.5,0,0,0-32.24,16c-9,4.18-15.44,11.91-15.68,21.42a20.18,20.18,0,0,0,.13,2.73l0,0.16c1.48,11.22,11.4,19.65,23.89,22.39l0.22,1.38,0,0-6.14,13.21,9.09,4.27,2,12.6v0.05a7,7,0,0,0,1,2.35,5,5,0,0,0,4.82,2.32,6,6,0,0,0,.79-0.14,5.33,5.33,0,0,0,3.85-3.73,8.23,8.23,0,0,0,.25-3.27c0-.22,0-0.36-0.05-0.4l-0.81-4.2L427.87,164l6.95-12.84L451,157.77l3.07-5.11,0.34,0.27,1.67,1.37,0.57,0.48,0.16,0.13,0,0h0a3.58,3.58,0,0,0,1.79,1,5.22,5.22,0,0,0,.83.14l0.29,0,6.1-1.09,1.43,2.43,1.59,2.69,0.57,1c0.17,0.28.22,0.37,0.39,0.61a3.12,3.12,0,0,0,2,1.19,4.68,4.68,0,0,0,.89.06h0.29l9-2.74,1.72,2.77c0.67,1.08,1.34,2.17,1.85,3l0.63,1.06,0.17,0.31,0,0.06a3,3,0,0,0,2.19,1.69,4.12,4.12,0,0,0,1.3,0l0.22,0,8.68-2.24,2.27,3.66a4.26,4.26,0,0,0,3,2,8,8,0,0,0,1.51.17c3.84,0.17,13.46-.34,16.14-0.64a5.71,5.71,0,0,0,.84-0.14,3.68,3.68,0,0,0,2-1.35,2.65,2.65,0,0,0,.49-1.82ZM386.24,115.26L387,120c-8.62-2.78-14.44-8.9-15.11-15.13v-0.13a12.39,12.39,0,0,1-.08-1.74c0-4.92,3.06-9.67,8.21-13a22.56,22.56,0,0,0,21.52,18.12Z" transform="translate(-5.05 -16.62)"/><path class="cls-2" d="M72.64,162.91l0.41,0-0.51-4.41a3.81,3.81,0,0,0-1.27-2.51,4,4,0,0,0-2.66-.86,6.38,6.38,0,0,0-.78,0l-4.6.54a4.45,4.45,0,0,0-2.76,1.24c-0.05.05-.09,0.12-0.14,0.18s-0.17.13-.24,0.2l-0.1.12-0.59-5.08-4.82.56h0l-0.67.08-3.38.39,0,0.33-0.42,0,0,0.33-0.42,0,0,0.33-0.42,0,0,0.33-0.42,0,0,0.33-0.42,0,0,0.33-0.42,0,0,0.33-0.42,0,0,0.33-0.42,0,0,0.33-0.42,0,0,0.33-0.42,0,0,0.33-0.42,0v0.11l-3.19.37-0.43-3.74-4.8.56,0,0.33-0.42,0,0,0.33-0.42,0,0,0.33-0.42,0,0,0.33-0.42,0,0,0.33-0.42,0,0,0.33-0.42,0,0,0.33-0.42,0,0,0.33-0.42,0,0,0.33-0.42,0,0,0.33-0.42,0,0,0.33-0.42,0v0.11l-3.42.4a4.45,4.45,0,0,0-2.77,1.25c-0.05.05-.09,0.12-0.13,0.17s-0.17.13-.25,0.21-0.09.12-.13,0.17-0.17.13-.25,0.21-0.09.12-.13,0.17l-0.06,0a3.53,3.53,0,0,0-.28-0.33,4,4,0,0,0-2.83-1.05,5.37,5.37,0,0,0-.71,0l-12.5,1.46,0,0.33-0.42,0,0,0.33-0.42,0,0,0.33-0.42,0,0,0.33-0.42,0,0,0.33-0.42,0,0,0.33-0.42,0,0,0.33-0.42,0,0,0.33-0.42,0,0,0.33-0.42,0,0,0.33-0.42,0,0,0.33-0.42,0,0,0.33-0.42,0,0,0.33-0.42,0,0,0.33-0.42,0L6.5,179.46l4.82-.56,0-.33,0.42,0,0-.33,0.42,0,0-.33,0.27,0,0.11,1,4.88-.57,0-.33,0.42,0,0-.33,0.42,0,0-.33,0.29,0,0.12,1,4.83-.56,0-.33,0.42,0,0-.33,0.21,0a4.5,4.5,0,0,0,1.94.41c0.25,0,.48,0,0.71,0l4.65-.54a5,5,0,0,0,2.73-1.1,3,3,0,0,0,.26-0.29l0.12-.08c0.06,0,.1-0.11.15-0.17l0.14,1.24,8.9-1a4.44,4.44,0,0,0,2.74-1.26s0.08-.11.12-0.16,0.18-.13.25-0.22,0.08-.11.12-0.16,0.18-.13.25-0.22l0,0,0.19,1.62,4.84-.56h0l4-.47,0-.33,0.42,0,0-.33,0.42,0v0a4.29,4.29,0,0,0,2,.45c0.22,0,.44,0,0.65,0l8.48-1,0-.33,0.42,0,0-.33,0.42,0,0-.33,0.42,0,0-.33,0.42,0,0-.33,0.42,0,0-.33,0.42,0,0-.33,0.42,0,0-.33,0.42,0,0-.33,0.42,0,0-.33,0.42,0,0-.33,0.42,0,0-.33,0.42,0,0-.33,0.42,0,0-.33,0.42,0ZM280.93,126.5l-4.82.56,0,0.33-0.42,0,0,0.33-0.42,0,0,0.33-0.42,0,0,0.33-0.42,0,0,0.33-0.42,0,0,0.33-0.42,0,0,0.33-0.42,0,0,0.33-0.42,0,0,0.33-0.42,0,0,0.33-0.42,0,0,0.33-0.42,0v0.11l-6.74.79,0,0.33-0.42,0,0,0.33-0.42,0,0,0.33-0.42,0,0,0.14a4,4,0,0,0-2.53-.82,5.85,5.85,0,0,0-.69,0l-8.85,1,0,0.33-0.42,0,0,0.33-0.42,0v0a4.23,4.23,0,0,0-1.93-.45,5.6,5.6,0,0,0-.74,0l-4.57.54a4.45,4.45,0,0,0-2.77,1.25s-0.08.11-.12,0.16-0.18.13-.26,0.22-0.08.11-.12,0.16l0,0,0-.25h0l-0.57-4.9-1.49.17-3.38.39,0,0.33-0.42,0,0,0.33-0.42,0,0,0.33-0.42,0,0,0.33-0.42,0,0,0.33-0.42,0,0,0.33-0.42,0,0,0.33-0.42,0,0,0.33-0.42,0,0,0.33-0.42,0,0,0.33-0.42,0,0,0.33-0.42,0v0.11l-3.29.38a4.78,4.78,0,0,0-2.72,1.09,3,3,0,0,0-.27.27l-0.12-1-8.77,1a4.79,4.79,0,0,0-2.72,1.09,2.89,2.89,0,0,0-.24.28l-0.14.1a2.9,2.9,0,0,0-.24.28l-0.14.1a2.9,2.9,0,0,0-.24.28l-0.11.08a3.22,3.22,0,0,0-.46-0.49,4,4,0,0,0-2.66-.86,6.36,6.36,0,0,0-.78,0l-4.6.54a4.79,4.79,0,0,0-2.29.83l-0.5-4.29-2.9.34a4.42,4.42,0,0,0-2.76,1.25c0,0.05-.08.11-0.13,0.17s-0.18.13-.25,0.21-0.08.11-.13,0.16-0.18.13-.25,0.21-0.08.11-.13,0.16-0.18.13-.25,0.21-0.08.11-.13,0.17-0.18.13-.25,0.21-0.08.11-.13,0.16-0.18.13-.25,0.21-0.08.11-.13,0.16-0.18.13-.25,0.21-0.08.11-.13,0.16-0.18.13-.25,0.21-0.08.11-.13,0.16-0.18.13-.25,0.21-0.08.11-.13,0.16-0.14.11-.2,0.17-0.26,0-.38,0a5.84,5.84,0,0,0-.73,0l-4.59.54a4.46,4.46,0,0,0-2.77,1.25l-0.19.22-0.13-1.1-5.21.61,0,0.33h0l0-.33a4.48,4.48,0,0,0-2.75,1.23c-0.05.05-.09,0.12-0.14,0.18s-0.17.12-.24,0.2-0.09.12-.14,0.18-0.17.12-.24,0.2-0.09.12-.14,0.18l-0.18.15a3.57,3.57,0,0,0-.3-0.38,3.88,3.88,0,0,0-2.83-1.09,5.74,5.74,0,0,0-.72,0l-8.83,1,0,0.33-0.42,0,0,0.33-0.42,0,0,0.33-0.42,0,0,0.33-0.42,0,0,0.33-0.42,0,0,0.33-0.42,0,0,0.33-0.42,0,0,0.33-0.42,0,0,0.33-0.42,0,0,0.33-0.42,0,0,0.33-0.42,0,0,0.33-0.42,0,0,0.33-0.42,0,0,0.33-0.42,0,1.87,16.06,4.82-.56,0-.33,0.42,0,0-.33,0.42,0,0-.33,0.42,0,0-.33,0.42,0,0-.33,0.42,0,0-.33,0.42,0,0-.33,0.42,0,0-.33,0.42,0,0-.33,0.42,0,0-.33,0.42,0,0-.33,0.42,0,0-.13a4.17,4.17,0,0,0,2.2-1.12c0.05-.06.09-0.12,0.14-0.18s0.17-.12.24-0.2,0.08-.1.12-0.15l0.16,1.36,4.82-.56,0-.33,0.42,0,0-.33,0.42,0,0-.33,0.42,0,0-.33,0.42,0,0-.33,0.42,0,0-.33,0.42,0,0-.33,0.42,0,0-.33,0.42,0,0-.33,0.22,0a3.56,3.56,0,0,0,1.05,1.66,4.06,4.06,0,0,0,2.69.89c0.25,0,.49,0,0.72,0l4.64-.54a5,5,0,0,0,2.73-1.1,2.83,2.83,0,0,0,.26-0.29l0.12-.09c0.06,0,.1-0.11.15-0.17l0.14,1.24,4.82-.56,0-.33,0.42,0,0-.33,0.42,0,0-.33,0.42,0,0-.33,0.16,0a4,4,0,0,0,2.74,1c0.22,0,.44,0,0.65,0l8.48-1h0l8.41-1a4.85,4.85,0,0,0,2.75-1.11,3,3,0,0,0,.26-0.26l0.12,1,8.75-1a4.86,4.86,0,0,0,2.75-1.11,3,3,0,0,0,.26-0.29l0.12-.09,0.12-.13,0.14,1.22,4.84-.57,0-.33,0.42,0,0-.33,0.41,0a4.49,4.49,0,0,0,1.94.41c0.25,0,.49,0,0.71,0l4.64-.54a4.94,4.94,0,0,0,2.73-1.1,2.92,2.92,0,0,0,.26-0.29l0.12-.09c0.06,0,.1-0.11.15-0.17l0.14,1.24,4.82-.56,0-.33,0.42,0,0-.33,0.42,0,0-.33,0.42,0,0-.33,0.42,0,0-.33,0.42,0,0-.33,0.42,0,0-.33,0.42,0,0-.33,0.42,0,0-.33h0.12l0.35,3,4.84-.57,0-.33,0.42,0,0-.33,0.27,0a4.08,4.08,0,0,0,1.86.42,6.51,6.51,0,0,0,.69,0l9.09-1.06,4-.46,0-.33,0.42,0,0-.33,0.42,0,0-.33,0.42,0,0-.33,0.42,0,0-.33,0.42,0,0-.33,0.42,0,0-.33,0.42,0,0-.33,0.42,0,0-.33,0.42,0,0-.33,0.42,0,0-.33,0.42,0,0-.33,0.42,0,0-.33,0.42,0,0-.33,0.42,0Zm-130.73,19-1.49.17-3.33.39,0,0.33-0.42,0,0,0.33-0.42,0,0,0.33-0.42,0,0,0.33-0.42,0,0,0.33-0.42,0,0,0.33-0.42,0,0,0.33-0.42,0,0,0.33-0.42,0,0,0.33h-0.13l-0.35-3-3.25.38v0l-1.49.17-1.27.15-0.43-3.71-4.82.56,0,0.33-0.42,0,0,0.33-0.42,0,0,0.33-0.42,0,0,0.33-0.42,0,0,0.33-0.27,0-0.19-1.65-1.49.17-2.85.33h0l-4.82.56,0,0.33-0.42,0,0,0.33-0.42,0,0,0.33-0.42,0,0,0.33-0.42,0,0,0.33-0.42,0,0,0.33-0.42,0,0,0.33-0.42,0,0,0.33-0.42,0,0,0.33-0.42,0,0,0.33-0.42,0,0,0.33-0.42,0v0.11l-6.74.79,0,0.33-0.37,0,0-.32-4.83.56,0,0.33-0.42,0,0,0.33-0.42,0,0,0.33-0.42,0,0,0.33-0.42,0,0,0.33-0.42,0,0,0.33-0.42,0,0,0.33-0.42,0,0,0.33-0.26,0-0.31-2.64-4,.46h0l-8.85,1,0,0.33h0l0-.33a4.41,4.41,0,0,0-2.76,1.29s-0.07.1-.11,0.14a3.61,3.61,0,0,0-.27.24s-0.07.1-.11,0.14a3.61,3.61,0,0,0-.27.24s-0.07.1-.11,0.14a3.61,3.61,0,0,0-.27.24s-0.07.1-.11,0.14a3.61,3.61,0,0,0-.27.24s-0.07.1-.11,0.14a3.59,3.59,0,0,0-.27.24s-0.07.1-.11,0.14a3.61,3.61,0,0,0-.27.24s-0.07.1-.11,0.14a3.59,3.59,0,0,0-.27.24s-0.07.1-.11,0.14a3.57,3.57,0,0,0-.27.24s-0.07.1-.11,0.14a3.55,3.55,0,0,0-.27.24s-0.07.1-.11,0.14a3.55,3.55,0,0,0-.27.24s-0.07.1-.11,0.14a3.57,3.57,0,0,0-.27.24s-0.07.1-.11,0.14a3.59,3.59,0,0,0-.27.24s-0.07.1-.11,0.14a3.59,3.59,0,0,0-.27.24s-0.07.1-.11,0.14a3.61,3.61,0,0,0-.27.24,4.08,4.08,0,0,0-1,2.85,6.15,6.15,0,0,0,0,.71l0.43,3.74a4.45,4.45,0,0,0,1.23,2.74,3.92,3.92,0,0,0,2.8,1c0.24,0,.46,0,0.68,0l4.07-.47,0.44,3.74,4.82-.56,0-.33,0.42,0,0-.33,0.42,0,0-.33L94,172l0-.33,0.42,0,0-.33,0.42,0,0-.33,0.42,0,0-.33,0.42,0,0-.33,0.42,0,0-.33,0.42,0,0-.33,0.42,0,0-.33L97,169v-0.1l7.38-.86,0-.33,0.42,0,0-.33,0.42,0V167.2a4,4,0,0,0,2,.49c0.24,0,.47,0,0.69,0l8.25-1h0l4.82-.56h0l4.33-.5,0-.33,0.42,0,0-.33,0.42,0,0-.33,0.42,0,0-.33,0.42,0,0-.33,0.28,0,0.19,1.65,4.82-.56,0-.33,0.42,0,0-.33,0.42,0,0-.33,0.42,0,0-.33,0.42,0,0-.33,0.23,0c0.07,0.08.13,0.17,0.21,0.25a3.47,3.47,0,0,0,1,.69l0.5,4.32,7-.82a4.46,4.46,0,0,0,2.76-1.25c0-.05.08-0.11,0.13-0.17a3.25,3.25,0,0,0,.25-0.21c0-.05.08-0.11,0.13-0.16a3.28,3.28,0,0,0,.25-0.21c0-.05.08-0.11,0.13-0.17a3.28,3.28,0,0,0,.25-0.21c0-.05.08-0.11,0.13-0.16a3.28,3.28,0,0,0,.25-0.21c0-.05.08-0.11,0.13-0.16a3.28,3.28,0,0,0,.25-0.21c0-.05.08-0.11,0.13-0.16a3.28,3.28,0,0,0,.25-0.21c0-.05.08-0.11,0.13-0.16a3.3,3.3,0,0,0,.25-0.21c0-.05.08-0.11,0.13-0.17a3.29,3.29,0,0,0,.25-0.21c0-.05.08-0.11,0.13-0.17a3.29,3.29,0,0,0,.25-0.21c0-.05.08-0.11,0.13-0.17a3.29,3.29,0,0,0,.25-0.21c0-.05.08-0.11,0.12-0.17a3.25,3.25,0,0,0,.25-0.21c0-.05.08-0.11,0.13-0.17a3.25,3.25,0,0,0,.25-0.21c0-.05.08-0.11,0.13-0.17a3.25,3.25,0,0,0,.25-0.21c0-.05.08-0.11,0.13-0.16a3.25,3.25,0,0,0,.25-0.21,4,4,0,0,0,1-2.83,6.92,6.92,0,0,0,0-.69ZM531.42,70.75l0.46-.17-6-16.68,0.41-.15L526,53.59l0.59-.22-0.21-.16L527,53l-0.21-.16,0.59-.22-0.21-.16,0.59-.22-0.21-.16,0.59-.22-0.21-.16,0.59-.22-0.21-.16,0.59-.22-0.21-.16,0.59-.22-0.21-.16,0.59-.22-0.21-.16L530,50l-0.21-.16,0.59-.22-0.21-.16,0.59-.22-12.14-9a20.23,20.23,0,0,0,0-2.45c0-.11,0-0.21,0-0.28a3.65,3.65,0,0,0-1.56-2.59,5.65,5.65,0,0,0-2.89-.89,8.8,8.8,0,0,0-1.47,0,2.07,2.07,0,0,0-.47.11L411.84,65.76a22.44,22.44,0,0,0-25.89,4.09l-0.38.38-0.38.38-0.38.38-0.38.38-0.38.38-0.38.38-0.38.38-0.38.38-0.38.38-0.38.38-0.38.38-0.38.38-0.38.38a22.62,22.62,0,0,0-6,9.62,29,29,0,0,0-4.39,3.67l-0.38.38-0.38.38-0.38.38-0.38.38L368.7,90l-0.38.38-0.38.38-0.38.38-0.38.38-0.38.38-0.38.38-0.38.38-0.38.38a22.4,22.4,0,0,0-7.05,15.5,20.19,20.19,0,0,0,.13,2.73l0,0.16a22.42,22.42,0,0,0,3.78,9.75,4.83,4.83,0,0,0-1.24-.16,6.43,6.43,0,0,0-.78,0l-4.6.54a4.47,4.47,0,0,0-2.76,1.24L353,123c-0.06.06-.14,0.1-0.2,0.17l-0.18.21h0L352.43,122l-7.92.92a4.46,4.46,0,0,0-2.75,1.23c-0.05.05-.08,0.12-0.13,0.17s-0.17.13-.25,0.21-0.08.12-.13,0.17l0,0,0-.23h0l-0.57-4.9-1.49.17-3.38.39,0,0.33-0.42,0,0,0.33-0.42,0,0,0.33-0.42,0,0,0.33-0.42,0,0,0.33-0.42,0,0,0.33-0.42,0,0,0.33-0.42,0,0,0.33-0.42,0,0,0.33-0.42,0,0,0.33-0.42,0,0,0.33-0.42,0,0,0.33-0.42,0,0,0.33-0.42,0,0,0.33-0.42,0,0.17,1.43h0l-0.1.28-1.54-2.43-5.32.62h0l-2.79.33,0,0.33h0l0-.33a4.49,4.49,0,0,0-2.75,1.23c-0.06.06-.09,0.13-0.14,0.18s-0.16.12-.24,0.19-0.09.13-.14,0.18-0.16.12-.24,0.19-0.09.13-.14,0.18l-0.08.06a3.15,3.15,0,0,0-.49-0.53,4.06,4.06,0,0,0-2.66-.86,6.77,6.77,0,0,0-.78,0l-4.6.54a4.48,4.48,0,0,0-2.76,1.24l-0.16.17-0.12-1.05-8.77,1a4.78,4.78,0,0,0-2.72,1.09,3,3,0,0,0-.26.29l-0.12.09a3,3,0,0,0-.26.29l-0.12.09a3,3,0,0,0-.26.29l-0.12.09a3,3,0,0,0-.26.29l-0.12.09a3,3,0,0,0-.26.29l-0.12.09a3,3,0,0,0-.26.29l-0.12.09a3,3,0,0,0-.26.29l-0.12.09a3,3,0,0,0-.26.29l-0.12.09a3,3,0,0,0-.26.29l-0.12.09a3,3,0,0,0-.26.29l-0.12.09a3,3,0,0,0-.26.29l-0.12.09a3,3,0,0,0-.26.29l-0.12.09a3,3,0,0,0-.26.29l-0.12.09a3,3,0,0,0-.26.29l-0.12.09a3.51,3.51,0,0,0-1.12,2.67,4.44,4.44,0,0,0,0,.59l0.11,0.93a3.83,3.83,0,0,0,1.05,2.28l-0.33,0,0,0.33-0.42,0,0.56,4.84,8.75-1a4.84,4.84,0,0,0,2.75-1.11,3.06,3.06,0,0,0,.29-0.31l0.09-.07a3.06,3.06,0,0,0,.29-0.31l0.09-.07,0.13-.14,0.16,0.17a4,4,0,0,0,2.81,1,6.3,6.3,0,0,0,.66,0l8.47-1,4.39-.51,0-.33,0.42,0,0-.33,0.42,0,0-.33,0.42,0,0-.33,0.42,0,0-.33,0.42,0,0-.33,0.42,0,0-.33,0.42,0,0-.33,0.42,0,0-.33,0.42,0,0-.33,0.42,0,0-.33,0.42,0,0-.33,0.42,0,0-.33,0.42,0,0-.33,0.42,0,0-.19,2.86,4.49,3-.35,0.12-.35,0.26,0,0.12-.35,0.26,0,0.12-.35,0.26,0,0.12-.35,0.26,0,0.12-.35,0.26,0,0.12-.35,0.26,0,0.12-.35,0.26,0,0.12-.35,0.26,0,0.12-.35,0.17,0,0.35,3,4.84-.56,0-.33,0.42,0,0-.33,0.42,0v-0.1a4.22,4.22,0,0,0,2,.49l0.65,0,7.94-.92,0-.33,0.42,0,0-.33,0.42,0v-0.12a4.27,4.27,0,0,0,2.07.5,6.3,6.3,0,0,0,.66,0l8.48-1,0-.33,0.42,0,0-.33,0.42,0,0-.33,0.42,0,0-.33,0.42,0,0-.33,0.42,0,0-.33,0.42,0,0-.33,0.42,0,0-.33,0.42,0,0-.33,0.42,0,0-.33,0.42,0,0-.33,0.42,0,0-.33,0.42,0,0-.33,0.42,0,0-.33,0.42,0-0.48-4.09,0.42,0-0.51-4.32a34.22,34.22,0,0,0,17.42,9.33l0.22,1.37,0,0-6.14,13.21,9.09,4.27,2,12.6v0.05a7,7,0,0,0,1,2.35,5,5,0,0,0,4.82,2.32,6,6,0,0,0,.79-0.14,5.17,5.17,0,0,0,2.68-1.63c0.13-.12.26-0.25,0.38-0.38s0.26-.25.38-0.38,0.26-.25.38-0.38,0.26-.25.38-0.38,0.26-.25.38-0.38,0.26-.25.38-0.38,0.26-.25.38-0.38,0.26-.25.38-0.38,0.26-.25.38-0.38,0.26-.25.38-0.38,0.26-.25.38-0.38,0.26-.25.38-0.38,0.26-.25.38-0.38a5.37,5.37,0,0,0,1.48-2.3l18.67,8.77,0.24-.44,0.14,0.07,0.24-.44,0.14,0.07,0.24-.44,0.14,0.07,0.24-.44,0.14,0.07,0.24-.44,0.14,0.07,0.24-.44,0.14,0.07,0.24-.44,0.14,0.07,0.24-.44,0.14,0.07,0.24-.44,0.14,0.07,0.24-.44,0.14,0.07,0.24-.44,0.14,0.07,0.24-.44,0.14,0.07,0.24-.44,0.14,0.07,0.24-.44,0.14,0.07,3.64-6.73,14.22,5.78,0.26-.43,0.12,0,0.26-.43,0.12,0,0.26-.43,0.12,0,0.26-.43,0.12,0,0.26-.43,0.12,0,0.26-.43,0.12,0,0.26-.43,0.12,0,0.26-.43,0.12,0,0.26-.43,0.12,0,0.26-.43,0.12,0,0.26-.43,0.12,0,0,0,0.89,0.73,0.57,0.48,0.16,0.13,0,0h0a3.58,3.58,0,0,0,1.79,1,5.22,5.22,0,0,0,.83.14l0.29,0,6.1-1.09,1.43,2.43,1.59,2.69,0.57,1c0.17,0.28.22,0.37,0.39,0.61a3.12,3.12,0,0,0,2,1.19,4.68,4.68,0,0,0,.89.06h0.29l9-2.74,1.72,2.77c0.67,1.08,1.34,2.17,1.85,3l0.63,1.06,0.17,0.31,0,0.06a3,3,0,0,0,2.19,1.69,4.12,4.12,0,0,0,1.3,0l0.22,0,8.68-2.24,2.27,3.66a4.26,4.26,0,0,0,3,2,8,8,0,0,0,1.51.17c3.84,0.17,13.46-.34,16.14-0.64a5.71,5.71,0,0,0,.84-0.14,3.82,3.82,0,0,0,1.87-1.15,9426694057253.87,9426694057253.87,0,0,1,.76-0.76,2693341159243.46,2693341159243.46,0,0,1,.76-0.76,12207.67,12207.67,0,0,1,1.14-1.14,6092,6092,0,0,1,1.14-1.14,3.16,3.16,0,0,0,.38-0.38,2693341159328,2693341159328,0,0,0,.76-0.76,3,3,0,0,0,.55-0.58,2.65,2.65,0,0,0,.49-1.82l0-.37-5.47-11.54L448,126.49l6.66-12.32-19.88-8.31,0.12-.12,0.09-.11,0,0,0.25-.25,0.09-.11,0,0,0.25-.25,0.09-.11,0,0,0.25-.25,0.09-.11,0,0,0.25-.25,0.09-.11,0,0,0.25-.25,0.09-.11,0,0,0.25-.25a5.53,5.53,0,0,0,1.58-4.35,5.23,5.23,0,0,0-1.86-3.33l-0.05,0-0.06,0A6.42,6.42,0,0,0,432,94.52a10.85,10.85,0,0,0-3.54,1.09l-1,.45a23.72,23.72,0,0,0-3.63-6,22.22,22.22,0,0,0,.25-6.73c-0.05-.46-0.15-0.91-0.23-1.37l64.14-24.51L486.7,69l6.43-2.4,6.87,19,26.57-9.64-0.08-.21,0.46-.17-0.08-.21,0.46-.17-0.08-.21,0.46-.17-0.08-.21,0.46-.17L528,74.16l0.46-.17-0.08-.21,0.46-.17-0.08-.21,0.46-.17L529.15,73l0.46-.17-0.08-.21,0.46-.17-0.08-.21,0.46-.17-0.08-.21,0.46-.17-0.08-.21,0.46-.17L531,71.13,531.5,71ZM385.86,115.64l0,0.19-0.41.19,0,0.19-0.41.19,0,0.19-0.41.19,0,0.19-0.41.19,0,0.19-0.41.19,0,0.19-0.41.19,0,0.19-0.41.19,0,0.19-0.41.19,0,0.16c-6.51-3.16-10.77-8.34-11.33-13.61v-0.13a12.4,12.4,0,0,1-.08-1.74A13.56,13.56,0,0,1,373.78,96l0.56-.38a22.55,22.55,0,0,0,16.87,17.49Zm-73.71.39a11.48,11.48,0,0,0,1-.89l0.38-.38,0.38-.38,0.38-.38,0.38-.38,0.38-.38,0.38-.38,0.38-.38,0.38-.38,0.38-.38,0.38-.38,0.38-.38,0.38-.38,0.38-.38a12.92,12.92,0,0,0,3.53-6.13l0.71-2.79a11.1,11.1,0,0,0,.36-4A5.7,5.7,0,0,0,321,93.8l0.25,0,0.09-.34,0.29,0,0.09-.34L322,93l0.09-.34,0.29,0,0.09-.34,0.29,0,0.09-.34,0.29,0,0.09-.34,0.29,0,0.09-.34,0.29,0,0.09-.34,0.29,0,0.09-.34,0.29,0,0.09-.34L325,90l2.58-10.18L304,82.54a13.8,13.8,0,0,0-7.42,2.95,11.1,11.1,0,0,0-1.22,1.2c-0.12.13-.26,0.24-0.38,0.38s-0.26.24-.38,0.38-0.26.24-.38,0.38-0.26.24-.38,0.38-0.26.24-.38,0.38-0.26.24-.38,0.38-0.26.24-.38,0.38-0.26.24-.38,0.38l-0.12.11a5.41,5.41,0,0,0-2-1.76,10.19,10.19,0,0,0-6-.79l0,0.34h0l0-.34-12.68,1.48,2.54-10.51L264,79.44l-0.08.34-0.3,0-0.08.34-0.3,0-0.08.34-0.3,0-0.08.34-0.3,0-0.08.34-0.3,0-0.08.34-0.3,0-0.08.34-0.3,0-0.08.34-0.3,0-0.08.34-0.3,0-0.08.34-0.3,0-0.08.34-0.3,0-0.08.34-0.3,0-0.08.34-0.3,0-0.08.34-0.3,0-0.83,3.42-7,.81,1.62-6.36L241.3,86.05l-0.07.29-0.31.09-0.07.29-0.31.09-0.07.29-0.31.09-0.07.29-0.31.09-0.07.29-0.31.09-0.07.29-0.31.09-0.07.29-0.31.09-0.07.29h0l1.51-5.93-11.29,1.32-0.09.35-0.29,0-0.09.35-0.29,0-0.09.35-0.29,0-0.09.35-0.29,0-0.09.35-0.29,0-0.09.35-0.29,0-0.09.35-0.29,0-0.09.35-0.29,0-0.09.35-0.29,0-0.09.35-0.29,0-0.09.35-0.29,0-0.09.35-0.29,0-0.09.35-0.29,0-0.09.35-0.29,0-1.17,4.6a5.68,5.68,0,0,0-.88-0.5A13.14,13.14,0,0,0,214.3,93l0,0.34h0l0-.34-39.55,4.61v0l-23.55,2.75-0.18,0,0.42-.3L135.09,102l-15.36,11.09L124.87,93l-10.13,1.18-0.09.35-0.29,0-0.09.35-0.29,0-0.09.35-0.29,0-0.09.35-0.29,0-0.09.35-0.29,0-0.09.35-0.29,0-0.09.35-0.29,0-0.09.35-0.29,0-0.09.35-0.29,0-0.09.35-0.29,0-0.09.35-0.29,0-0.09.35-0.29,0-0.09.35-0.29,0-0.09.35-0.29,0-1.61,6.29-15.27,1.78a13.71,13.71,0,0,0-7.74,3.31c-0.13.12-.25,0.25-0.37,0.37h0c-0.13.12-.25,0.25-0.37,0.37h0c-0.13.12-.25,0.25-0.37,0.37h0c-0.13.12-.25,0.25-0.37,0.37h0c-0.11.1-.21,0.21-0.31,0.31a6,6,0,0,0-1.78-2.23,12.88,12.88,0,0,0-.05-2.32,9.84,9.84,0,0,0-3.75-6.84,11,11,0,0,0-8-1.93,19.7,19.7,0,0,0-11.2,5.79l-0.38.38-0.38.38-0.38.38-0.38.38-0.38.38-0.38.38-0.38.38-0.38.38-0.38.38-0.38.38-0.38.38-0.38.38-0.38.38a21.66,21.66,0,0,0-5,7.32l-0.35.35-0.38.38-0.38.38-0.38.38-0.38.38-0.38.38-0.38.38a10.89,10.89,0,0,0-3,5.1l-2.49,10.51-13.93,1.62,7.37-31.39-11.32,1.32-0.08.34-0.3,0-0.08.34-0.3,0-0.08.34-0.3,0-0.08.34-0.3,0-0.08.34-0.3,0-0.08.34-0.3,0-0.08.34-0.3,0-0.08.34-0.3,0-0.08.34-0.3,0-0.08.34-0.3,0-0.08.34-0.3,0-0.08.34-0.3,0-0.08.34-0.3,0-0.08.34-0.3,0L7.21,153.77,41,149.83l0.08-.34,0.3,0,0.08-.34,0.3,0,0.08-.34,0.3,0,0.06-.26A7.34,7.34,0,0,0,46,149l18.78-2.19a11.58,11.58,0,0,0,6.59-3.38c0.13-.12.25-0.25,0.38-0.38s0.25-.25.38-0.38,0.25-.25.38-0.38l0.21-.21a5.53,5.53,0,0,0,2.13,2.18,9.46,9.46,0,0,0,5.8.87L105,142.28h0l3.38-.4,0.09-.34,0.29,0,0.09-.34,0.29,0,0.09-.34,0.29,0,0.09-.34,0.29,0L110,140l0.29,0,0.09-.34,0.29,0,0.09-.34,0.29,0,0.09-.34,0.29,0,0.09-.34,0.29,0,0.09-.34,0.29,0,0.09-.34,0.29,0,0.09-.34,0.29,0L113,137l0.29,0,0.09-.34,0.29,0,2-7.83,7.08,11.35,30.46-3.55a13.37,13.37,0,0,0,6.07-2.71,11.17,11.17,0,0,0,1.14-1.09c0.13-.13.26-0.25,0.38-0.38s0.26-.25.38-0.38l0,0-0.9,3.81,11.33-1.32,0.08-.34,0.3,0,0.08-.34,0.3,0,0.08-.34,0.3,0,0.08-.34,0.3,0,0.08-.34,0.3,0,0.08-.34,0.3,0,0.08-.34,0.3,0,0.08-.34,0.3,0,0.08-.34,0.3,0,0.08-.34,0.3,0,0.08-.34,0.3,0,0.08-.34,0.3,0,0.08-.34,0.3,0,0.08-.34,0.3,0,4.19-17.62,4.7-.55a4,4,0,0,1,.92,0h0c0,0.09,0,.21-0.06.34l-5.23,21.95,11.55-1.35,0.08-.34,0.3,0,0.08-.34,0.3,0,0.08-.34,0.3,0,0.08-.34,0.3,0,0.08-.34,0.3,0,0.08-.34,0.3,0,0.08-.34,0.3,0,0.08-.34,0.3,0,0.08-.34,0.3,0,0.08-.34,0.3,0,0.08-.34,0.3,0,0.08-.34,0.3,0,0.08-.34,0.3,0,0.08-.34,0.3,0L202.58,109l4.51-.53a4.34,4.34,0,0,1,1.12,0,3.08,3.08,0,0,1-.07.45L203,130.81l21.64-2.52,0.09-.34,0.29,0,0.09-.34,0.29,0,0.09-.34,0.29,0,0.09-.34,0.29,0,0.09-.34,0.29,0,0.09-.34,0.29,0,0.09-.34,0.29,0,0.09-.34,0.29,0,0.09-.34,0.29,0,0.09-.34,0.29,0,0.09-.34,0.29,0,0.09-.34,0.29,0,0.09-.34h0.11a6.42,6.42,0,0,0,.64,1.2,5.56,5.56,0,0,0,5.37,2.45l13.5-1.57-0.17.69L258.79,125l0.08-.34,0.3,0,0.08-.34,0.3,0,0.08-.34,0.3,0,0.08-.34,0.3,0,0.08-.34,0.3,0,0.08-.34,0.3,0,0.08-.34,0.3,0,0.08-.34,0.3,0,0.08-.34,0.3,0,0.08-.34,0.3,0,0.08-.34,0.3,0,0.08-.34,0.3,0,0.08-.34,0.3,0,0.08-.34,0.3,0L268,103.5l9.52-1.1,0.27,0a4.41,4.41,0,0,1-.11.61l-4.95,20.44,10.11-1.18,0.08-.34,0.29,0,0.08-.34,0.29,0,0-.08L304.72,119A14,14,0,0,0,312.15,116Zm-210,12-13.28,1.55a4,4,0,0,1-1.24,0,3.45,3.45,0,0,1,.13-0.89l-0.26-.07h0l0.26,0.07,1.61-6.28L104,120.64Zm32.33-12.68-0.72,2.84a12.76,12.76,0,0,0-.35,2.12l-2.51-3.9,4.24-3.05A15,15,0,0,0,134.46,115.3Zm117.76-3.69-7.28.85,2.49-9.77,7.15-.83ZM235.32,72.67a8.9,8.9,0,0,0,5.46.83h0.15l22.2-2.56h0.08V70.86l7.38-.86,0.08-.34,0.29,0,0.08-.34,0.29,0,0.08-.34,0.29,0,0.08-.34,0.29,0,0.08-.34,0.29,0,0.08-.34,0.29,0,0.08-.34,0.29,0,0.08-.34,0.29,0,0.08-.34,0.29,0,0.08-.34,0.29,0,0.08-.34,0.29,0,0.08-.34,0.3,0,0.08-.34,0.3,0,0.08-.34,0.29,0,0.37-1.52,3.54-14.66,9.52-1.1,0.27,0a4.52,4.52,0,0,1-.11.6l-4.95,20.44,10.11-1.18,0.08-.34,0.3,0,0.08-.34,0.3,0,0.08-.34,0.3,0,0.08-.34,0.3,0,0.08-.34,0.3,0,0.08-.34,0.3,0,0.05-.23a4.65,4.65,0,0,0,.38.32l0.11,0.08,0.11,0.06a8.75,8.75,0,0,0,3.83,1.12h0.2l24.65-2.87v0.05l10.11-1.18,0.08-.34,0.3,0,0.08-.34,0.3,0,0.08-.34,0.3,0,0.08-.34,0.3,0L338,60.5l0.3,0,0.08-.34,0.3,0,0.08-.34,0.3,0,0.08-.34,0.3,0,0.08-.34,0.3,0,0.08-.34,0.3,0,0.08-.34,0.3,0,0.08-.34,0.3,0,0.08-.34,0.3,0,0.08-.34,0.3,0,3.92-16.21,9.45-1.1,0.33,0a3.05,3.05,0,0,1-.06.32l-5,20.67,10.16-1.18,0.08-.34,0.3,0L361,58.8l0.3,0,0.08-.34,0.3,0,0.08-.34,0.3,0,0.08-.34,0.3,0,0.08-.34h0.08q0.2,0.15.41,0.28l-0.07.31-0.3,0-0.08.34-0.3,0-0.08.34-0.3,0-0.08.34-0.3,0-0.08.34-0.3,0-0.08.34-0.3,0-0.08.34-0.3,0-0.08.34-0.3,0-2.3,9.54,22.5-2.62a13.77,13.77,0,0,0,7.7-3.22c0.28-.25.55-0.52,0.8-0.79l0.38-.38,0.38-.38,0.38-.38,0.38-.38,0.38-.38,0.38-.38,0.38-.38,0.38-.38,0.38-.38,0.38-.38,0.38-.38,0.38-.38,0.38-.38a13,13,0,0,0,2.89-4.38,10.65,10.65,0,0,0,5.38.58l23.92-2.79,0.08-.34,0.3,0,0.08-.34,0.3,0,0.08-.34,0.3,0,0.08-.34,0.3,0,0.08-.34,0.3,0,0.08-.34,0.3,0,0.08-.34,0.3,0,0.08-.34,0.3,0,0.08-.34,0.3,0,0.08-.34,0.3,0,0.08-.34,0.3,0,0.08-.34,0.3,0,0.08-.34,0.3,0,0.08-.34,0.3,0,2.18-9L430,38l0-.1,0.3,0,0.08-.34,0.3,0,0.08-.34,0.3,0,0.08-.34,0.3,0,0.08-.34,0.3,0,0.08-.34,0.3,0,0.08-.34,0.3,0,0.08-.34,0.3,0,2.36-9.73a9.67,9.67,0,0,0,.25-3.28,5.49,5.49,0,0,0-3.16-4.46,11.17,11.17,0,0,0-6-.64l0,0.34h0l0-.34L413,18.69a13.83,13.83,0,0,0-7.73,3.23c-0.13.11-.24,0.24-0.36,0.36l0,0c-0.13.11-.24,0.24-0.36,0.36l0,0c-0.11.1-.2,0.21-0.31,0.31L405,19.62l-24.59,2.87,0,0.33h0l0-.33a13.71,13.71,0,0,0-7.74,3.29c-0.11.1-.21,0.22-0.31,0.33l-0.06.05c-0.11.1-.21,0.22-0.31,0.33l-0.06.05c-0.11.1-.21,0.22-0.31,0.33l-0.06.05c-0.11.1-.21,0.22-0.31,0.33l-0.06.05c-0.11.1-.21,0.22-0.31,0.33l-0.06.05c-0.11.1-.21,0.22-0.31,0.33l-0.06.05,0,0a5.58,5.58,0,0,0-2.46-2.66,10,10,0,0,0-5.91-.8l0,0.34h0l0-.34-22.95,2.67-0.08.34-0.3,0L338.6,28l-0.3,0-0.08.34-0.3,0-0.08.34-0.3,0-0.08.34-0.3,0-0.08.34-0.3,0-0.08.34-0.3,0-0.08.34-0.3,0,0,0.15a5.22,5.22,0,0,0-1.5-1.17,10.13,10.13,0,0,0-5.93-.76l-22.3,2.6-0.08.34-0.3,0-0.08.34-0.3,0-0.08.34-0.3,0-0.08.34-0.3,0-0.08.34-0.3,0-0.08.34-0.3,0-0.08.34-0.3,0-0.08.34h0a5.26,5.26,0,0,0-1.39-1,10.18,10.18,0,0,0-6-.79l-12.69,1.48L286,23.28l-10.14,1.18,0,0.09-21.51,2.51A12.53,12.53,0,0,0,247,30.27l-0.31.32-0.06.06-0.31.32-0.06.06-0.31.32-0.06.06-0.31.32-0.06.06-0.31.32-0.06.06-0.31.32-0.06.06-0.31.32-0.06.06-0.31.32-0.06.06-0.31.32-0.06.06-0.31.32-0.06.06-0.31.32-0.06.06-0.31.32-0.06.06-0.31.32-0.06.06-0.31.32-0.06.06a14.13,14.13,0,0,0-3.89,7.25l-4.94,20.94a12.82,12.82,0,0,0-.37,4.35A5.81,5.81,0,0,0,235.32,72.67ZM375.84,43.78l0-.12V43.56A3.63,3.63,0,0,1,376,43l1.42-5.88L387.22,36l-1.78,7.37-9.71,1.13C375.76,44.25,375.8,44,375.84,43.78Zm-64.26,7.1,8.89-1-0.32,1.34-8.82,1Zm-63,6.77,3.76-16,15.76-1.83-4,16.72-15,1.75a4.14,4.14,0,0,1-.59,0A3.7,3.7,0,0,1,248.6,57.65ZM123.69,86.83l0.3,0,0.08-.34,0.3,0,0.08-.34,0.3,0,0-.19a7.15,7.15,0,0,0,4.24.76l18.8-2.19a11.59,11.59,0,0,0,6.71-3.49l0.38-.38,0.38-.38,0.38-.38,0.36-.36a5.51,5.51,0,0,0,2.17,2.16,9.83,9.83,0,0,0,5.89.84l0-.34h0l0,0.34,20.22-2.36h0l7.53-.88,0.08-.34,0.3,0,0.08-.34,0.3,0,0.08-.34,0.3,0,0.08-.34,0.3,0,0.08-.34,0.3,0,0.08-.34,0.3,0,0.08-.34,0.3,0,0.08-.34,0.3,0,0.08-.34,0.3,0,0.08-.34,0.3,0,0.08-.34,0.3,0,0.08-.34,0.3,0,0.08-.34,0.3,0,0.08-.34,0.3,0,0.37-1.52,1.35-5.59,7.47,10.73,13.77-1.6-0.22-.31,0.6-.07-0.22-.31,0.6-.07-0.22-.31,0.6-.07L221,74.45l0.6-.07-0.22-.31L222,74l-0.22-.31,0.6-.07-0.22-.31,0.6-.07-0.22-.31,0.6-.07-0.22-.31,0.6-.07-0.22-.31,0.6-.07-0.22-.31,0.6-.07-0.22-.31,0.6-.07L224.45,71l0.6-.07-0.22-.31,0.6-.07L214,54.73l7.7-5.37,0-.09L222.1,49l0-.09,0.41-.29,0-.09,0.41-.29,0-.09,0.41-.29,0-.09,0.41-.29,0-.09,0.41-.29,0-.09,0.41-.29,0-.09,0.41-.29,0-.09,0.41-.29,0-.09,0.41-.29,0-.09,0.41-.29,0-.09,0.41-.29,0-.09,0.41-.29,0-.09,0.41-.29L225.48,40l-7.72.9-15.17,10.6,4.6-19-10.11,1.18L197,34l-0.3,0-0.08.34-0.3,0-0.08.34-0.3,0-0.08.34-0.3,0-0.08.34-0.3,0-0.08.34-0.3,0-0.08.34-0.3,0-0.08.34-0.3,0L194,37l-0.3,0-0.08.34-0.3,0-0.08.34-0.3,0-0.08.34-0.3,0-0.08.34-0.3,0-0.08.34-0.3,0-1.37,5.68L175.23,46.4a13.86,13.86,0,0,0-7.66,3.18c-0.12.11-.22,0.23-0.34,0.35l0,0c-0.12.11-.22,0.23-0.34,0.35l0,0c-0.12.11-.22,0.23-0.34,0.35l0,0-0.16.16a6,6,0,0,0-2-2.79,12.85,12.85,0,0,0-.05-2.33,9.84,9.84,0,0,0-3.75-6.84,11,11,0,0,0-8-1.93,19.71,19.71,0,0,0-11.2,5.79l-0.38.38-0.38.38-0.38.38-0.38.38-0.38.38-0.38.38-0.38.38-0.38.38-0.38.38-0.38.38-0.38.38-0.38.38-0.38.38a21.67,21.67,0,0,0-5,7.32l-0.35.35-0.38.38-0.38.38-0.38.38-0.38.38-0.38.38-0.38.38a10.87,10.87,0,0,0-3,5.1l-2.41,10.16L108.8,74.6l7.37-31.39-11.32,1.32-0.08.34-0.3,0-0.08.34-0.3,0-0.08.34-0.3,0-0.08.34-0.3,0-0.08.34-0.3,0-0.08.34-0.3,0-0.08.34-0.3,0-0.08.34-0.3,0-0.08.34-0.3,0-0.08.34-0.3,0-0.08.34-0.3,0L100.6,49l-0.3,0-0.08.34-0.3,0-0.08.34-0.3,0L89.85,91.11l33.76-3.94Zm47.22-20.37,1.35-5.56,14.62-1.7-1.55,6.42-13.19,1.54a4.47,4.47,0,0,1-1.32,0A3.14,3.14,0,0,1,170.91,66.46Z" transform="translate(-5.05 -16.62)"/><path class="cls-3" d="M85.76,127.71L88,119.08q1-4,4.53-4.38l17.82-2.08,1.38-5.38L93,109.42q-7.95,1-10.08,9.09l-2.84,11.1q-2.15,8.5,5.83,7.62L104.58,135l1.43-5.59-16.7,1.95Q84.68,131.92,85.76,127.71ZM79,111.34c1.12-6.29-2.74-10.83-9.15-10.1s-12.72,6.48-14.6,12.86a9.47,9.47,0,0,0-5,5.87L46.5,135.84c-0.78,3.28,1.35,5.64,4.74,5.25L70,138.9a9.47,9.47,0,0,0,7.57-6.68l3.76-15.86C81.93,113.93,80.91,112,79,111.34ZM67.85,121.71a4.87,4.87,0,0,1-2.43,3l-0.51,6.38-4.46.52L63,125a2.08,2.08,0,0,1-1.09-2.61,4.72,4.72,0,0,1,3.7-3.43C67.26,118.77,68.25,120,67.85,121.71Zm8-10.51-17.23,2c1.66-4.56,6.15-8.35,10.48-8.86S76.32,106.78,75.84,111.2Zm85.72,0.66-12.73,1.48q-2.56.27-1.84-2.54a3.66,3.66,0,0,1,3.24-3.05l20.33-2.37,1.4-5.51-20.31,2.37q-7.7.9-9.52,8L141.42,113q-1.73,6.9,6,6l12-1.4q3.26-.33,2.64,2.21a4.52,4.52,0,0,1-4.11,3.49l-19.6,2.28-1,4.11-9.88-15.32L143.28,103l-7.15.83L116.2,118.17l5.87-22.94-5.35.62-10,38.93,1.27-.15h0l4.08-.47,2.75-10.74,6.36-4.58,8.28,13.29,8.63-1,0,0,19-2.22q7.72-.9,9.63-7.93l0.7-2.76Q169.26,111,161.56,111.86ZM30.8,108.11l-6.57.77-8.6,36.62,29-3.38,1.23-5.23L23.43,139.5ZM229.54,90.9l6.5-.76,1.23-4.82-6.5.76Zm55.21-1.73L268.87,91l2.54-10.51-5.37.63-8.89,36.74,5.32-.62,5.08-21,15.22-1.75q3.51-.41,2.61,3.34l-4.19,17.31,5.35-.62L291,96.1Q292.87,88.25,284.75,89.17ZM295,92.39l-0.72,2.84q-1.73,6.9,6,6l12-1.4q3.26-.33,2.64,2.21a4.52,4.52,0,0,1-4.11,3.49l-19.6,2.28-1.42,5.59L310,111.05q7.72-.9,9.63-7.93l0.7-2.76q1.81-7.22-5.88-6.33l-12.73,1.48q-2.56.27-1.84-2.54a3.65,3.65,0,0,1,3.24-3.05l20.33-2.37,1.4-5.51-20.31,2.37Q296.79,85.32,295,92.39Zm-52.62,21.54,4.71-18.48L259.31,94l1-4.2-12.14,1.41,1.44-5.65-6.2,1.89-1.13,4.44-5,.58-1,4.2,4.87-.57-4.35,17.1a5.17,5.17,0,0,0,.53,4.39,3.25,3.25,0,0,0,3.26,1.5l14-1.62,1.11-4.37-11.88,1.38C242.17,114.72,242.35,113.93,242.35,113.93Zm-27.6-19-39.34,4.59-6.64,28,6.57-.77,5.34-22.44,10.42-1.22q4.12-.46,3.35,3L190,125l6.79-.79,5.33-22.38,10.23-1.19q4.34-.48,3.5,3.18l-4.43,18.75,6.64-.77,4.67-19.61Q224.67,93.78,214.75,94.91Zm14.09-1.25-7,27.67,6.5-.76,7-27.67ZM169.35,74.54L188,72.36l1.28-5.28L172.58,69q-4.63.51-3.67-3.46l2-8.15q0.94-3.76,4.42-4.16l17.82-2.08,1.23-5.08-18.69,2.18q-7.95,1-9.86,8.64l-2.54,10.48Q161.36,75.42,169.35,74.54ZM329,30.41l-20.74,2.42-1,4,23.06-2.69s0.2,0,.14.35c0,0.16-.35,1.6-0.68,3L311,39.74a7.62,7.62,0,0,0-5.46,5L303.34,56a1.94,1.94,0,0,0,.88,1.64,6.52,6.52,0,0,0,2.83.82l23.65-2.76,4.48-18.51Q337,29.47,329,30.41ZM326.9,50l-0.62,2.42-15.93,1.86A1.16,1.16,0,0,1,309,53.2l1.39-7.37a3.3,3.3,0,0,1,2.27-2.35l16.27-1.9Zm-80.73,15.6,20-2.3h0l0.74-.09,1.2-5.23-18.55,2.16q-3.85.45-2.93-3.37l4.29-18.27q1-4.06,4.52-4.5l18.83-2.19,1.21-5.26-20.69,2.41q-7.43.87-9.28,8.75l-4.94,20.94Q238.7,66.48,246.17,65.58Zm28.12-3.3,5.09-21,15.22-1.75q3.51-.41,2.61,3.34L293,60.17l5.35-.62,4.46-18.43q1.87-7.85-6.24-6.93L280.69,36l2.54-10.51-5.37.63L269,62.9Zm-78.74,9.19L198,61.34,204.25,57l8.68,12.47,8.63-1L210.28,52.77l15.65-10.91-7.15.83L199.2,56.38l5.24-21.66-5.35.62L190.2,72.09ZM426.85,19l-13.39,1.56q-8,1-9.93,8.81L401,40q-1.78,7.65,6.15,6.79l22.34-2.6,1-4.33-22.87,2.67A1.4,1.4,0,0,1,406,40.66l0.57-2.41c0-.08,0-0.16,0-0.25l0.58-2.38,24.09-2.81,2-8.2Q434.78,18.13,426.85,19Zm0.92,6.92-1,4.18L408,32.29l0.58-2.41a5.26,5.26,0,0,1,5-4.23l12-1.4Q428.23,23.95,427.77,25.92Zm-65.31.56L341.07,29l-6.36,26.29,5.35-.62,5.09-21,15.15-1.77q3.47-.33,2.74,3l-4.26,17.58,5.4-.63,4.42-18.36Q370.49,25.6,362.46,26.48Zm18.43-2.12q-8,1-10,9l-2.56,10.48q-1.84,7.7,6.16,6.77l16.09-1.87-0.47,2a6,6,0,0,1-.24.77A6.59,6.59,0,0,1,388.8,54a2.25,2.25,0,0,1-1.56.57l-20,2.33-1.18,4.87,19.28-2.25q8-.93,9.93-8.81l7-28.89Zm10.7,20.19-17.11,2s-0.85.15-.88-1.5a10.84,10.84,0,0,1,.22-2,5.86,5.86,0,0,1,.15-0.91l2-8.15q1-4,5.57-4.61l14.15-1.65ZM128.51,74.23l-22.44,2.62,7.37-31.39-6.57.77-8.6,36.62,29-3.38Zm5.78,4.49,18.78-2.19a9.47,9.47,0,0,0,7.57-6.68L164.4,54c0.57-2.42-.44-4.34-2.37-5,1.13-6.29-2.74-10.83-9.15-10.1s-12.72,6.48-14.6,12.86a9.46,9.46,0,0,0-5,5.88l-3.76,15.86C128.77,76.75,130.9,79.11,134.28,78.72ZM152.14,42c4.33-.5,7.22,2.43,6.75,6.85l-17.23,2C143.31,46.28,147.8,42.49,152.14,42Zm-6.07,20.67A2.08,2.08,0,0,1,145,60a4.72,4.72,0,0,1,3.69-3.43c1.64-.19,2.63,1,2.23,2.74a4.86,4.86,0,0,1-2.43,3L148,68.74l-4.46.52Z" transform="translate(-5.05 -16.62)"/><path class="cls-3" d="M522.19,49.71l4.07-1.52-9.85-7.28a15.85,15.85,0,0,0,.18-3.38c-0.09-2-3.43-1.58-3.43-1.58L411.77,67.83a20.25,20.25,0,0,0-30,15.14c-9,3.82-15.25,11.12-15.46,19.91a17.66,17.66,0,0,0,.12,2.46c1.28,10.43,11,18.62,23.64,20.86l1.21,7.39-2-1-4.2,9,8.14,3.82,2.23,13.75s0.71,3.58,3.84,2.78,2.37-4.82,2.37-4.82l-1.64-8.52,26.61,12.5,6.89-12.75L449.88,155l3.41-5.67s4.62,3.71,4.95,4.07a2.26,2.26,0,0,0,1.2.44l7.36-1.32s4.37,7.46,4.64,7.83a1.41,1.41,0,0,0,1,.34l10.36-3.16s5.22,8.34,5.46,8.94a1.22,1.22,0,0,0,1.25.43l10.13-2.62,3.25,5.24a1.87,1.87,0,0,0,1.48.86c1.83,0.47,16.43-.31,17.37-0.59s0.89-.74.89-0.74l-4.95-10.44L445,127.23l6.65-12.29-23.12-9.67,7.2-3.75a2.93,2.93,0,0,0-.17-4.4c-2.33-1.79-5.95.18-5.95,0.18l-3.23,1.52a21.21,21.21,0,0,0-4.76-8.52,20.19,20.19,0,0,0-1.18-13L496.2,48.34l-1.37,11.58,5.1-1.9,6.88,19,7.94-2.88-2.3-6.36a2.89,2.89,0,0,1,1.72-3.69l0.46-.17a2.89,2.89,0,0,1,3.69,1.73l2.3,6.36,8.52-3.09ZM393.38,76.13a4.87,4.87,0,0,1,5.36,4c-0.53,0-1.07-.06-1.61-0.07a39.71,39.71,0,0,0-5.33.26q-1.38.16-2.71,0.42A4.87,4.87,0,0,1,393.38,76.13Zm4.94,7a4.86,4.86,0,0,1-8.42.53c0.74-.13,1.49-0.25,2.25-0.34a36.47,36.47,0,0,1,4.92-.24Zm24,44-7.83-4.6a26.68,26.68,0,0,0,8.31-6.93l4.68,2.75Zm-7.11-8.58,3.24-5.5,1.74,1A23,23,0,0,1,415.22,118.55Zm8.42-18.45-35.13,16.5,1.06,6.46c-11.09-2.32-19.23-9.68-20.14-18.06a14.73,14.73,0,0,1-.1-2.05c0.09-6.84,4.91-13,12.31-16.59,0,0.51,0,1,.1,1.55a20.29,20.29,0,0,0,38.77,5.74A17.24,17.24,0,0,1,423.64,100.1Z" transform="translate(-5.05 -16.62)"/><path class="cls-4" d="M117.19,150.56l-6.43.75,0.22,1.86,6.11-.71a1.22,1.22,0,0,1,1.41,1.33h0l-5.92.69a2.11,2.11,0,0,0-2.07,2.65l0.15,1.29q0.27,2.33,2.81,2l7.58-.88L120.28,153A2.46,2.46,0,0,0,117.19,150.56Zm-3.41,8a1.06,1.06,0,0,1-1.36-1h0a1.1,1.1,0,0,1,1.2-1.25l5.11-.6,0.27,2.26Zm34.58-4-5.16.6a1.15,1.15,0,0,1-1.44-1.13L141,147.78l-1.85.21L140,154.6A2.46,2.46,0,0,0,143,157l5.54-.65,0.08,0.7a1.07,1.07,0,0,1-1.07,1.31l-5.24.61,0.22,1.87,5.53-.64a2.49,2.49,0,0,0,2.43-3.12l-1.2-10.28-1.84.21Zm-22.19-6.84,1.89-.22-0.22-1.92-1.89.22Zm-3,11.66,1.84-.21L123.5,146l-1.84.21Zm11.41-14.59-1.84.21,0.43,3.7-2.76.32,0.22,1.88,2.76-.32,0.87,7.5,1.84-.21-0.88-7.51L138,150l-0.22-1.87-2.76.32Zm-7.1,14.09,1.86-.21-1.1-9.42-1.86.22Zm-73.3,8.54,1.86-.22L55,157.75,53.1,158Zm-1.33-11.16,1.89-.22-0.22-1.92-1.89.22Zm-5,2.43-5.52.64-0.44-3.74-1.82.21,1.52,13.09L49,168a2.48,2.48,0,0,0,2.4-3.12L51,161.2Q50.63,158.32,47.85,158.65Zm1.65,6q0.17,1.38-1.5,1.57l-4.79.56-0.66-5.63,5.09-.59a1.18,1.18,0,0,1,1.51,1.11Zm-13.88-4.56-4.6.54a2.5,2.5,0,0,0-2.45,3.13L29,167.89q0.28,2.36,3,2.07l4.61-.54q2.78-.35,2.52-2.65l-0.49-4.23Q38.37,159.75,35.61,160.07Zm1.72,6.68q0.07,0.7-1.16.85l-3.63.42c-1.07.12-1.64-.14-1.71-0.77l-0.41-3.48a1.09,1.09,0,0,1,1.08-1.34l4.07-.47A1.06,1.06,0,0,1,36.9,163ZM23.48,161.5l-11,1.28,1.1,9.34,1.84-.21-0.87-7.48,2.92-.34a1.06,1.06,0,0,1,1.31,1l0.73,6.28,1.9-.22-0.87-7.46,2.86-.33a1.1,1.1,0,0,1,1.37,1.09l0.74,6.25,1.86-.22L26.59,164A2.5,2.5,0,0,0,23.48,161.5Zm34.75,5.41,1.84-.21-1.52-13.08-1.84.21Zm48.21-7.51-5,.58a1.07,1.07,0,0,1-1.33-1l-0.73-6.28-1.84.21,0.76,6.54q0.34,2.79,3.09,2.48l7.09-.83-1.09-9.34-1.85.21Zm-20.79-2.24,0.43,3.73a2.46,2.46,0,0,0,3.07,2.42l5.54-.65,0.44,3.74,1.84-.21L95.45,153.1l-7.36.86Q85.35,154.3,85.65,157.15Zm8.17-2,0.66,5.63-5.16.6a1.15,1.15,0,0,1-1.44-1.13l-0.34-2.9A1.38,1.38,0,0,1,89,155.73Zm-25.36,1.08-4.61.54a2.48,2.48,0,0,0-2.43,3.13l0.44,3.79a2.48,2.48,0,0,0,3.08,2.43l7-.81-0.22-1.87-6.63.77a1.17,1.17,0,0,1-1.4-1.24l-0.1-.84,8.29-1-0.34-2.92Q71.2,155.94,68.47,156.24Zm1.3,3.24-6.44.75,0-.14a1.22,1.22,0,0,1,1.25-1.5l4.13-.48a0.74,0.74,0,0,1,1,.6Zm101-15.17-7.37.86,1.52,13.08,1.84-.21-0.43-3.73,5.54-.65a2.44,2.44,0,0,0,2.42-3.07l-0.43-3.73Q173.52,144,170.78,144.32Zm1.64,6.09a1.13,1.13,0,0,1-1.14,1.43l-2.07.25h0l-3.08.37-0.66-5.63,4.87-.57a1.37,1.37,0,0,1,1.75,1.27Zm141.4-22.76-4.6.54a2.48,2.48,0,0,0-2.43,3.12l0.44,3.79a2.48,2.48,0,0,0,3.08,2.43l7-.81L317,134.85l-6.63.77a1.16,1.16,0,0,1-1.4-1.23l-0.1-.85,8.29-1-0.34-2.92Q316.55,127.35,313.81,127.65Zm1.3,3.24-6.44.75,0-.14a1.22,1.22,0,0,1,1.25-1.5l4.13-.48a0.74,0.74,0,0,1,1,.6Zm-12.72,1.83-4.56.53a0.83,0.83,0,0,1-1-.84,0.82,0.82,0,0,1,.8-1l7.29-.85-0.21-1.83-7.28.85q-2.76.32-2.5,2.67l0.11,0.94q0.28,2.3,3,2l4.29-.5c0.78-.08,1.21.16,1.28,0.73a1,1,0,0,1-1.07,1.17l-7,.82,0.22,1.86,7.26-.85q2.77-.33,2.54-2.66l-0.11-.92Q305.15,132.4,302.39,132.72ZM319,129.84l0.77,6.58,1.84-.21-0.74-6.33a1.07,1.07,0,0,1,1.07-1.31l3.43-.4-0.22-1.84-3.72.43A2.47,2.47,0,0,0,319,129.84Zm-39.28,11.25,1.84-.21-1.52-13.09-1.84.21Zm63-14,0.43,3.73q0.34,2.86,3.09,2.55l6.42-.75-0.22-1.88-5.75.67a1.35,1.35,0,0,1-1.76-1.24l-0.34-2.9a1.14,1.14,0,0,1,1.05-1.48l6.13-.71-0.21-1.81-6.43.75A2.46,2.46,0,0,0,342.71,127.06Zm-4.6-4.08,1.89-.22-0.22-1.92-1.89.22Zm-64.35,9.34-6.43.75,0.22,1.86,6.11-.71a1.22,1.22,0,0,1,1.41,1.33h0l-5.92.69a2.11,2.11,0,0,0-2.07,2.65l0.15,1.29q0.27,2.33,2.81,2l7.57-.88-0.77-6.6A2.46,2.46,0,0,0,273.76,132.32Zm-3.41,8a1.07,1.07,0,0,1-1.36-1h0a1.1,1.1,0,0,1,1.2-1.25l5.11-.6,0.27,2.26Zm69.09-6.16,1.86-.22-1.1-9.42-1.86.22Zm-7-2.19-3.82-6-2,.23,5.57,8.77,1.13-.13L336.7,125l-1.9.22Zm-141.12,10-4.6.54a2.5,2.5,0,0,0-2.45,3.13l0.48,4.16q0.28,2.37,3,2.07l4.61-.54q2.78-.35,2.52-2.65l-0.49-4.23A2.5,2.5,0,0,0,191.33,141.92Zm1.72,6.68q0.07,0.7-1.16.85l-3.63.42q-1.6.18-1.71-.77l-0.41-3.48a1.09,1.09,0,0,1,1.08-1.33l4.07-.47a1.06,1.06,0,0,1,1.31,1.05Zm28.51-6.45-4.56.53a0.83,0.83,0,0,1-1-.84,0.82,0.82,0,0,1,.8-1l7.29-.85-0.21-1.83-7.28.85q-2.76.32-2.49,2.67l0.11,0.94q0.28,2.29,3,2l4.29-.5c0.78-.08,1.21.16,1.28,0.73a1,1,0,0,1-1.07,1.17l-7,.82,0.22,1.86,7.26-.84q2.77-.33,2.54-2.66l-0.11-.92Q224.32,141.82,221.56,142.14Zm-12.72-2.26-4.61.54a2.48,2.48,0,0,0-2.43,3.13l0.44,3.79a2.48,2.48,0,0,0,3.08,2.43l7-.81-0.22-1.87-6.63.77a1.17,1.17,0,0,1-1.4-1.24l-0.1-.84,8.29-1-0.34-2.92Q211.58,139.58,208.84,139.88Zm1.3,3.24-6.44.75,0-.14a1.22,1.22,0,0,1,1.25-1.5l4.13-.48a0.74,0.74,0,0,1,1,.59Zm-14-2.71,1.2,10.28,1.84-.21-0.87-7.5,1.85-.21-0.22-1.85-1.85.21-0.08-.69a1,1,0,0,1,1-1.31l1.21-.14L200,137.13l-1.41.16Q195.8,137.62,196.11,140.42ZM176,146.52l0.77,6.58,1.84-.21-0.74-6.33a1.07,1.07,0,0,1,1.07-1.31l3.43-.4L182.16,143l-3.72.44A2.46,2.46,0,0,0,176,146.52Zm73.26-11.35-4.6.54a2.5,2.5,0,0,0-2.45,3.13l0.48,4.16q0.28,2.37,3,2.07l4.61-.54q2.78-.35,2.52-2.65l-0.49-4.23Q252,134.85,249.25,135.17Zm1.72,6.68c0,0.47-.34.75-1.16,0.85l-3.63.42q-1.61.18-1.71-.77l-0.41-3.48a1.09,1.09,0,0,1,1.08-1.34l4.07-.47a1.06,1.06,0,0,1,1.31,1.06Zm10.53-8.11-7.36.86,1.09,9.36,1.84-.21-0.87-7.49,5.21-.61a1.12,1.12,0,0,1,1.37,1.08L263.5,143l1.86-.22-0.77-6.53A2.49,2.49,0,0,0,261.5,133.74Zm-23.89,1,1.89-.22-0.22-1.92-1.89.22Zm1.33,11.16,1.86-.22-1.1-9.42-1.86.22Zm-5.49-5.09-4.56.53a0.83,0.83,0,0,1-1-.84,0.82,0.82,0,0,1,.8-1l7.29-.85-0.21-1.83-7.28.85q-2.76.32-2.49,2.67l0.11,0.95q0.28,2.29,3,2l4.29-.5q1.18-.12,1.28.73a1,1,0,0,1-1.07,1.17l-7,.82,0.22,1.86,7.26-.85q2.77-.32,2.54-2.66l-0.11-.92Q236.2,140.44,233.44,140.76Zm131.09-13.7-0.34-2.92q-0.3-2.31-3-2l-4.61.54a2.48,2.48,0,0,0-2.43,3.13l0.44,3.79a2.48,2.48,0,0,0,3.08,2.43l7-.81-0.22-1.87-6.63.77a1.17,1.17,0,0,1-1.41-1.24l-0.1-.84ZM356,126a1.22,1.22,0,0,1,1.25-1.5l4.13-.48a0.74,0.74,0,0,1,1,.6l0.08,0.78-6.44.75Z" transform="translate(-5.05 -16.62)"/><path class="cls-5" d="M136.22,104.28l-20.94,15.11,6-23.57-4.28.5-6.75,26.39,4.94-.22,6-4.36,2.45,3.92,7.59-.44-4.72-7.32,14.74-10.62Zm6.31,6-0.72,2.83a8.93,8.93,0,0,0-.3,2.15c0.06,2.3,1.16,3.26,4.14,3.33a14.07,14.07,0,0,0,1.59-.1l12-1.4a7.18,7.18,0,0,1,.75,0,3,3,0,0,1,1.83.48,1.82,1.82,0,0,1,.71,1.53c0,0.05,0,.11,0,0.16l4.17-.38,0.21-.84a9.7,9.7,0,0,0,.33-2.34c-0.06-2.4-1.18-3.39-4.14-3.47a12.72,12.72,0,0,0-1.52.1l-0.06-.5,0.06,0.5-12.74,1.49-0.48,0a2.16,2.16,0,0,1-1.52-.51,2,2,0,0,1-.55-1.48,4.93,4.93,0,0,1,.17-1.2,4.17,4.17,0,0,1,3.67-3.43l20-2.33,1.14-4.48-19.59,2.28C146.64,103.34,143.72,105.79,142.53,110.32ZM93,109.91c-5.13.64-8.25,3.44-9.66,8.72l-1.26,4.93,4.18-.08,1.16-4.53c0.7-2.77,2.43-4.48,5-4.75l17.48-2,1.11-4.34Zm-14.25,1.89-0.4-.14,0.07-.42a11.52,11.52,0,0,0,.19-2c0-4.52-2.85-7.53-7.51-7.56a11.15,11.15,0,0,0-1.27.08c-6.17.71-12.37,6.33-14.18,12.51l-0.06.21-0.19.1a9,9,0,0,0-4.7,5.54l-0.85,3.59q5.5,0.06,11.5.07a2.77,2.77,0,0,1-.06-0.62,3.6,3.6,0,0,1,.1-0.84,5.2,5.2,0,0,1,4.12-3.81l0.39,0a2.46,2.46,0,0,1,1.8.71,2.56,2.56,0,0,1,.69,1.81,3.69,3.69,0,0,1-.1.85l-0.49-.11,0.49,0.12a5,5,0,0,1-1,1.91q5.68,0,11.74-.12l1.75-7.37a5.16,5.16,0,0,0,.15-1.2A3.24,3.24,0,0,0,78.72,111.81Zm-2.47-.56,0,0.4L57.77,113.8,58,113c1.74-4.74,6.32-8.63,10.89-9.19a8.72,8.72,0,0,1,1-.06,6.28,6.28,0,0,1,4.6,1.79,6.53,6.53,0,0,1,1.76,4.68A9.32,9.32,0,0,1,76.25,111.25ZM21.35,123l5.32,0.2,3.4-14.46-5.52.64ZM248.77,86.32l-5.09,1.55-1.15,4.5-5,.58-0.72,3.17,4.89-.57-3.65,14.35,4.89-.8L246.57,95l12.25-1.43,0.72-3.16-12.16,1.42Zm54.14,3.12,20-2.33L324,82.64l-19.58,2.28c-5,.61-7.89,3.06-9.09,7.59h0l-0.72,2.84a9,9,0,0,0-.31,2.15,4.27,4.27,0,0,0,.31,1.58q9.43-2.11,18.94-4.44l-12,1.39-0.48,0a2.16,2.16,0,0,1-1.52-.51,2,2,0,0,1-.55-1.48,4.8,4.8,0,0,1,.17-1.2A4.16,4.16,0,0,1,302.91,89.44Zm-16.65.13a13.69,13.69,0,0,0-1.54.09l-16.6,1.93,2.54-10.51-4.31.5L260.43,106l4.34-.81,2.28-9.44L282.62,94a6.46,6.46,0,0,1,.71,0,2.77,2.77,0,0,1,1.95.64,2.48,2.48,0,0,1,.69,1.88,6.49,6.49,0,0,1-.2,1.48L285,101.18l4.4-.94,1-4.26a11.06,11.06,0,0,0,.34-2.52C290.69,90.76,289.45,89.65,286.26,89.57Zm-69.42,5.7a17.83,17.83,0,0,0-2.13.13l-39,4.54-4.39,18.51,5.5-.55,3.35-14.06L191,102.59a8.24,8.24,0,0,1,.94-0.06,3.51,3.51,0,0,1,2.25.63,2.39,2.39,0,0,1,.83,2,5.29,5.29,0,0,1-.13,1.12l-2.37,10,5.74-.68,3.38-14.17,10.58-1.24a9.39,9.39,0,0,1,1-.06,3.67,3.67,0,0,1,2.34.65,2.45,2.45,0,0,1,.86,2,5.4,5.4,0,0,1-.15,1.19L214,113.49l5.63-.79L222.12,102a10.59,10.59,0,0,0,.31-2.41C222.38,96.66,220.79,95.35,216.84,95.27ZM224.61,112l5.48-.82,4.49-17.68-5.44.63Zm5.51-21.66,5.44-.63,1-3.78-5.44.63Z" transform="translate(-5.05 -16.62)"/><path class="cls-6" d="M103.3,63.58l5.38-.05L112.79,46l-5.52.64Zm72.43-14.81c-5.14.64-8.17,3.3-9.43,8.26l-1.21,5,4.21-.18,1.1-4.54a5.43,5.43,0,0,1,4.85-4.54l17.47-2,1-4Zm-13.88.66-0.4-.14,0.08-.42a11.49,11.49,0,0,0,.19-2c0-4.52-2.85-7.53-7.51-7.56a11,11,0,0,0-1.27.08c-6.17.71-12.37,6.33-14.18,12.51l-0.06.21-0.2.1a9,9,0,0,0-4.7,5.54l-1.27,5.37q6.08-.15,12.74-0.36a2.48,2.48,0,0,1-.89-2,3.64,3.64,0,0,1,.1-0.85,5.2,5.2,0,0,1,4.12-3.81l0.38,0a2.47,2.47,0,0,1,1.81.71,2.56,2.56,0,0,1,.68,1.81,3.66,3.66,0,0,1-.1.85A5.32,5.32,0,0,1,149,62.61q6.25-.21,12.92-0.47l2-8.27a5.1,5.1,0,0,0,.15-1.19A3.24,3.24,0,0,0,161.86,49.44Zm-2.47-.56,0,0.4-18.43,2.15,0.28-.76c1.74-4.74,6.32-8.63,10.89-9.19a8.59,8.59,0,0,1,1-.06,6.31,6.31,0,0,1,4.6,1.79,6.56,6.56,0,0,1,1.76,4.69C159.44,48.22,159.42,48.55,159.39,48.88ZM219,43.17L198.4,57.54l5.38-22.25-4.29.5-6,24.84,5.05-.29,5.84-4.07,2.48,3.56,7.55-.49-4.82-6.7L224,42.58ZM330.62,30.8a13.48,13.48,0,0,0-1.55.1l-0.06-.5,0.06,0.5-20.4,2.38-0.72,3,22.4-2.61h0.06a0.66,0.66,0,0,1,.34.15,0.76,0.76,0,0,1,.25.58,1.47,1.47,0,0,1,0,.2c0,0.19-.36,1.61-0.68,3.07l-0.08.35-19.09,2.22a6.46,6.46,0,0,0-4,2.6,7.64,7.64,0,0,0-1.07,2l-1.17,5.93,4.14-.53,0.85-4.49A3.79,3.79,0,0,1,312.51,43h0l17-2L328,47.6l4.33-.64,2.4-9.9a10.6,10.6,0,0,0,.32-2.43C335,32,333.76,30.88,330.62,30.8Zm-32.46,3.78a13.47,13.47,0,0,0-1.53.1L280,36.62l2.54-10.51-4.31.5L271.5,54.55l4.25-.44L279,40.81,294.53,39a6.48,6.48,0,0,1,.7,0,2.76,2.76,0,0,1,2,.64,2.47,2.47,0,0,1,.7,1.88,6.58,6.58,0,0,1-.2,1.48l-2.16,8.92,4.29-.52L302.33,41a11,11,0,0,0,.34-2.52C302.6,35.78,301.36,34.66,298.17,34.59ZM274.82,27.1l-20,2.33c-4.77.58-7.63,3.25-8.85,8.36l-4.61,19.54,4.7-.4c0-.1,0-0.19.06-0.29l4.29-18.28c0.64-2.84,2.37-4.59,4.95-4.89l18.48-2.15ZM428.6,19.4a15.1,15.1,0,0,0-1.69.1h0l-13.39,1.56c-5.19.65-8.24,3.36-9.5,8.44l-1,4.06,4.42-1.06,0.66-2.73a5.77,5.77,0,0,1,5.41-4.61l12-1.4a6.28,6.28,0,0,1,.71,0,2.5,2.5,0,0,1,1.5.39,1.53,1.53,0,0,1,.6,1.29,3.27,3.27,0,0,1-.07.62l-0.49-.1h0L428.26,26,428,27.09l4.47-1.28,0.31-1.3a7.88,7.88,0,0,0,.22-1.76C433,20.45,431.78,19.47,428.6,19.4Zm-47.66,5.46c-5.16.65-8.25,3.42-9.58,8.64l-1.75,7.15L374,39.8l1.44-6c0.68-2.84,2.8-4.57,6-5l14.87-1.73-2,8.46,4.41-1,2.94-12.13-20.67,2.41h0Zm-17,2a13.29,13.29,0,0,0-1.47.09h0l-21,2.45-4.05,16.75,4.33-.68,3-12.35,15.51-1.81c0.22,0,.43,0,0.64,0a3,3,0,0,1,2,.62,2.36,2.36,0,0,1,.74,1.86,5.65,5.65,0,0,1-.14,1.18l-1.73,7.13,4.4-.81,1.92-8a11,11,0,0,0,.35-2.57C368.39,28.08,367.16,27,364,26.89Z" transform="translate(-5.05 -16.62)"/><path class="cls-7" d="M489.4,166.4l10.48-2.7,3.47,5.6v0h0a0.68,0.68,0,0,0,.11.11,2.43,2.43,0,0,0,1,.44,16.83,16.83,0,0,0,2.72.13c4.75,0,13.86-.54,14.38-0.72a1.35,1.35,0,0,0,.49-0.23L517.32,159l-73-31.53,6.65-12.29-23.6-9.87,8.06-4.2a3.24,3.24,0,0,0,.36-0.49,2.61,2.61,0,0,0,.41-1.33,2.34,2.34,0,0,0-.93-1.78,3.38,3.38,0,0,0-2.11-.65,7,7,0,0,0-2.28.44,7.88,7.88,0,0,0-1,.45l-3.77,1.77-0.16-.57a20.68,20.68,0,0,0-4.65-8.32l-0.17-.2,0.06-.26a20,20,0,0,0,.56-4.68,19.39,19.39,0,0,0-.13-2.23A19.87,19.87,0,0,0,420,77.48L419.78,77l77-29.42-1.37,11.58,4.81-1.79,6.89,19,7-2.54L512,67.92a3.33,3.33,0,0,1-.21-1.15A3.39,3.39,0,0,1,514,63.59l0.46-.17a3.39,3.39,0,0,1,4.33,2l2.13,5.89,7.58-2.75-6.78-18.71-0.17-.47L525.22,48l-9.36-6.92,0.06-.31a15.1,15.1,0,0,0,.19-2.47c0-.25,0-0.52,0-0.79a1,1,0,0,0-.72-0.9,4.3,4.3,0,0,0-1.53-.24,5.76,5.76,0,0,0-.58,0L411.71,68.37l-0.19-.1a19.74,19.74,0,0,0-9.62-2.52,19.42,19.42,0,0,0-2.29.14A19.79,19.79,0,0,0,382.28,83l0,0.28-0.26.11c-8.86,3.77-15,10.92-15.15,19.46,0,0.13,0,.25,0,0.38a16.83,16.83,0,0,0,.12,2c1.23,10.13,10.79,18.21,23.23,20.42l0.35,0.06,1.43,8.73-2.38-1.26-3.77,8.11,7.92,3.72,2.27,14a4.78,4.78,0,0,0,.52,1.28,2.23,2.23,0,0,0,2,1.21,3.13,3.13,0,0,0,.75-0.1c1.77-.45,2.06-2.1,2.07-3.3a5.67,5.67,0,0,0-.07-0.94l-1.82-9.48,27.06,12.72,6.88-12.72,16.33,6.63,3.49-5.8,0.45,0.36s4.57,3.66,5,4.12a1.14,1.14,0,0,0,.47.21l0.33,0.06,7.63-1.37,0.18,0.3s4.4,7.51,4.61,7.79a1.26,1.26,0,0,0,.53.14L483,156.93l0.2,0.33s5.18,8.26,5.5,9a0.58,0.58,0,0,0,.46.14h0.21ZM388.58,80.75a5.37,5.37,0,0,1,4.74-5.12h0a5.08,5.08,0,0,1,.63,0,5.38,5.38,0,0,1,5.29,4.48l0.11,0.62-0.63,0c-0.53,0-1.06-.06-1.59-0.07h-0.74a38.23,38.23,0,0,0-4.53.26c-0.9.1-1.8,0.24-2.68,0.41l-0.62.12Zm10.52,1.93-0.34.68a5.38,5.38,0,0,1-4.2,3,5.66,5.66,0,0,1-.62,0A5.38,5.38,0,0,1,389.48,84l-0.42-.63,0.75-.14c0.75-.14,1.51-0.25,2.28-0.35a36.61,36.61,0,0,1,4.27-.25h0.73l1.26,0Zm-10,34.2,1.12,6.81-0.71-.15c-11.23-2.35-19.58-9.82-20.54-18.49a15.48,15.48,0,0,1-.11-1.77c0-.11,0-0.24,0-0.35,0.09-7.09,5.07-13.39,12.59-17l0.68-.33,0,0.76c0,0.51,0,1,.1,1.51a19.8,19.8,0,0,0,19.64,17.51,20.51,20.51,0,0,0,2.32-.13A19.77,19.77,0,0,0,420,93.45l0.34-.78,0.52,0.68a17.74,17.74,0,0,1,3.22,6.64l0.09,0.39Zm31.89-3-0.37.45A23.5,23.5,0,0,1,415.5,119l-0.71-.67,3.49-5.93Zm1.81,13.46-0.25.43-9-5.3,0.77-.42a26.17,26.17,0,0,0,8.15-6.8l0.27-.35,5.49,3.23Z" transform="translate(-5.05 -16.62)"/></svg>