<?xml version="1.0" encoding="utf-8"?>
<!-- Generator: Adobe Illustrator 22.1.0, SVG Export Plug-In . SVG Version: 6.00 Build 0)  -->
<svg version="1.1" id="Layer_1" xmlns="http://www.w3.org/2000/svg" xmlns:xlink="http://www.w3.org/1999/xlink" x="0px" y="0px"
	 viewBox="0 0 111.7 117.8" style="enable-background:new 0 0 111.7 117.8;" xml:space="preserve">
<style type="text/css">
	.st0{fill:#BB9645;}
	.st1{fill:#0A0B0B;}
	.st2{fill:#FFFFFF;}
	.st3{fill:#231F20;}
	.st4{fill:url(#SVGID_1_);}
	.st5{fill:url(#SVGID_2_);}
	.st6{fill:url(#SVGID_3_);}
	.st7{fill:url(#SVGID_4_);}
	.st8{fill:url(#SVGID_5_);}
	.st9{fill:url(#SVGID_6_);}
	.st10{fill:url(#SVGID_7_);}
	.st11{fill:url(#SVGID_8_);}
	.st12{fill:url(#SVGID_9_);}
	.st13{fill:url(#SVGID_10_);}
	.st14{fill:url(#SVGID_11_);}
	.st15{fill:#1B1B1B;}
	.st16{fill:url(#SVGID_12_);}
	.st17{fill:url(#SVGID_13_);}
	.st18{fill:url(#SVGID_14_);}
	.st19{fill:url(#SVGID_15_);}
	.st20{fill:url(#SVGID_16_);}
	.st21{fill:url(#SVGID_17_);}
	.st22{fill:url(#SVGID_18_);}
	.st23{fill:url(#SVGID_19_);}
	.st24{fill:url(#SVGID_20_);}
	.st25{fill:url(#SVGID_21_);}
	.st26{fill:url(#SVGID_22_);}
</style>
<g>
	<path class="st0" d="M23.8,29.8c0-4,3.7-7.3,8.3-7.3h40.8l29.6-14.9C98,3.1,91.7,0.3,84.8,0.3H27C12.9,0.3,1.6,11.6,1.6,25.5v34
		L23.8,48V29.8z"/>
	<path class="st0" d="M110,24.2L87.8,35.4v22.2c0,4.1-3.8,7.4-8.4,7.4H30.6l-29,15.1v19v10.8v7.6h8.8l7.6-0.2c3.3-0.8,6-3.8,6-7.4
		V88.4h60.9c13.9,0,25.2-11.3,25.2-25.2V25.5C110,25.1,110,24.7,110,24.2z"/>
</g>
</svg>
